<svg width="179" height="182" viewBox="0 0 179 182" fill="none" xmlns="http://www.w3.org/2000/svg">
<path d="M62.5693 0.000483188C26.7922 0.190303 8.83045 61.7095 2.12691 93.3319C-4.57663 124.955 2.42805 189.827 54.4241 181.221C62.8289 179.83 64.7907 179.545 71.7189 176.068C84.0505 169.879 98.6447 165.524 111.834 164.21C117.241 163.671 124.08 161.886 127.699 161.235C156.719 156.017 186.336 127.907 177.37 98.4518C170.636 76.3317 150.908 67.4272 131.151 68.6514C120.301 69.3236 108.754 62.96 106.438 55.9299C98.8961 33.0317 90.2218 -0.14597 62.5693 0.000483188Z" fill="url(#paint0_linear_1_1473)"/>
<path opacity="0.1" d="M157.469 28.3722C160.542 28.3722 163.033 30.863 163.033 33.9356V125.239C163.033 126.593 162.71 127.926 162.089 129.129L159.049 135.026C158.387 136.31 156.551 136.31 155.889 135.026L152.848 129.129C152.228 127.926 151.904 126.593 151.904 125.239V33.9356C151.904 30.863 154.396 28.3722 157.469 28.3722Z" fill="#3A85F4"/>
<path opacity="0.1" d="M136.667 172.112H38.9016C34.9744 172.112 31.791 168.929 31.791 165.003V35.1262C31.791 31.1997 34.9744 28.0168 38.9016 28.0168H136.667C140.594 28.0168 143.778 31.1997 143.778 35.1262V165.003C143.778 168.929 140.594 172.112 136.667 172.112Z" fill="#3A85F4"/>
<path d="M136.667 162.515H38.9013C34.9741 162.515 31.7907 159.332 31.7907 155.406V25.5288C31.7907 21.6023 34.9741 18.4194 38.9013 18.4194H136.667C140.594 18.4194 143.777 21.6023 143.777 25.5288V155.406C143.777 159.332 140.594 162.515 136.667 162.515Z" fill="#D4EBFF"/>
<path fill-rule="evenodd" clip-rule="evenodd" d="M136.668 164.292H38.9026C34.0016 164.292 30.0143 160.306 30.0143 155.405V25.5286C30.0143 20.6284 34.0016 16.6418 38.9026 16.6418H84.156H136.668C141.569 16.6418 145.556 20.6284 145.556 25.5286V155.405C145.556 160.306 141.569 164.292 136.668 164.292ZM38.9026 20.1965H84.156H136.668C139.609 20.1965 142.001 22.5885 142.001 25.5286V155.405C142.001 158.345 139.609 160.737 136.668 160.737H38.9026C35.962 160.737 33.5696 158.345 33.5696 155.405V25.5286C33.5696 22.5885 35.962 20.1965 38.9026 20.1965Z" fill="#3A85F4"/>
<path d="M135.244 28.7291V152.205C135.244 153.189 134.448 153.982 133.466 153.982H112.332C113.013 153.982 111.424 153.982 112.332 153.982H63.299C63.9795 153.982 62.6185 153.982 63.299 153.982H42.1019C41.1206 153.982 40.3242 153.189 40.3242 152.205V28.7291C40.3242 27.7445 41.1206 26.9518 42.1019 26.9518H63.299L112.269 26.9518L133.466 26.9518C134.448 26.9518 135.244 27.7445 135.244 28.7291Z" fill="white"/>
<path d="M23.7923 67.5218H22.7257V66.4554C22.7257 65.4736 21.9297 64.678 20.9481 64.678C19.9665 64.678 19.1704 65.4736 19.1704 66.4554V67.5218H18.1038C17.1222 67.5218 16.3262 68.3173 16.3262 69.2991C16.3262 70.2809 17.1222 71.0765 18.1038 71.0765H19.1704V72.1429C19.1704 73.1247 19.9665 73.9202 20.9481 73.9202C21.9297 73.9202 22.7257 73.1247 22.7257 72.1429V71.0765H23.7923C24.7739 71.0765 25.57 70.2809 25.57 69.2991C25.57 68.3173 24.7739 67.5218 23.7923 67.5218Z" fill="#81C2FF"/>
<path d="M158.896 149.743H157.829V148.677C157.829 147.695 157.033 146.9 156.052 146.9C155.07 146.9 154.274 147.695 154.274 148.677V149.743H153.207C152.226 149.743 151.43 150.539 151.43 151.521C151.43 152.503 152.226 153.298 153.207 153.298H154.274V154.365C154.274 155.346 155.07 156.142 156.052 156.142C157.033 156.142 157.829 155.346 157.829 154.365V153.298H158.896C159.877 153.298 160.673 152.503 160.673 151.521C160.673 150.539 159.877 149.743 158.896 149.743Z" fill="#D4EBFF"/>
<path d="M17.0365 83.4112H15.9699V82.3448C15.9699 81.363 15.1738 80.5674 14.1922 80.5674C13.2106 80.5674 12.4146 81.363 12.4146 82.3448V83.4112H11.348C10.3663 83.4112 9.57031 84.2067 9.57031 85.1885C9.57031 86.1703 10.3663 86.9659 11.348 86.9659H12.4146V88.0323C12.4146 89.0141 13.2106 89.8096 14.1922 89.8096C15.1738 89.8096 15.9699 89.0141 15.9699 88.0323V86.9659H17.0365C18.0181 86.9659 18.8141 86.1703 18.8141 85.1885C18.8141 84.2067 18.0181 83.4112 17.0365 83.4112Z" fill="#D4EBFF"/>
<path d="M19.8818 26.5972C19.4267 26.5972 18.972 26.4237 18.6246 26.0764L17.0375 24.4896L15.4504 26.0764C14.7561 26.7706 13.6308 26.7706 12.9365 26.0764C12.2421 25.3825 12.2421 24.2571 12.9365 23.5632L15.7807 20.7195C16.4751 20.0253 17.6003 20.0253 18.2947 20.7195L21.1389 23.5632C21.8333 24.2571 21.8333 25.3825 21.1389 26.0764C20.7916 26.4237 20.3368 26.5972 19.8818 26.5972Z" fill="#D4EBFF"/>
<path d="M168.726 143.378C168.271 143.378 167.816 143.204 167.469 142.857L165.882 141.27L164.294 142.857C163.6 143.551 162.475 143.551 161.781 142.857C161.086 142.163 161.086 141.038 161.781 140.344L164.625 137.5C165.319 136.806 166.444 136.806 167.139 137.5L169.983 140.344C170.677 141.038 170.677 142.163 169.983 142.857C169.636 143.204 169.181 143.378 168.726 143.378Z" fill="#D4EBFF"/>
<path d="M128.125 81.2334H47.5902C46.6082 81.2334 45.8125 80.4373 45.8125 79.4557C45.8125 78.4741 46.6082 77.6781 47.5902 77.6781H128.125C129.107 77.6781 129.903 78.4741 129.903 79.4557C129.903 80.4373 129.107 81.2334 128.125 81.2334Z" fill="#5A5A5A"/>
<path d="M128.125 45.3148H47.5902C46.6082 45.3148 45.8125 44.5188 45.8125 43.5371C45.8125 42.5555 46.6082 41.7595 47.5902 41.7595H128.125C129.107 41.7595 129.903 42.5555 129.903 43.5371C129.903 44.5188 129.107 45.3148 128.125 45.3148Z" fill="#5A5A5A"/>
<path d="M53.4635 70.5563H47.5902C46.6082 70.5563 45.8125 69.7603 45.8125 68.7786C45.8125 67.797 46.6082 67.001 47.5902 67.001H53.4635C54.4455 67.001 55.2412 67.797 55.2412 68.7786C55.2412 69.7603 54.4455 70.5563 53.4635 70.5563Z" fill="#5A5A5A"/>
<path d="M91.1593 84.6107H47.6664C46.7382 84.6107 45.909 85.2894 45.8209 86.2134C45.7196 87.2736 46.5508 88.166 47.59 88.166H91.1593C92.1409 88.166 92.9369 87.37 92.9369 86.3883C92.9369 85.4064 92.1409 84.6107 91.1593 84.6107Z" fill="#5A5A5A"/>
<path d="M117.381 84.6107H100.224C99.2424 84.6107 98.4464 85.4067 98.4464 86.3883C98.4464 87.37 99.2424 88.166 100.224 88.166H117.458C118.497 88.166 119.328 87.2736 119.227 86.2134C119.139 85.2894 118.31 84.6107 117.381 84.6107Z" fill="#5A5A5A"/>
<path d="M91.1593 48.6921H47.6664C46.7382 48.6921 45.909 49.3708 45.8209 50.2948C45.7196 51.355 46.5508 52.2474 47.59 52.2474H91.1593C92.1409 52.2474 92.9369 51.4514 92.9369 50.4697C92.9369 49.4878 92.1409 48.6921 91.1593 48.6921Z" fill="#5A5A5A"/>
<path d="M117.381 48.6921H100.224C99.2424 48.6921 98.4464 49.4881 98.4464 50.4698C98.4464 51.4514 99.2424 52.2474 100.224 52.2474H117.458C118.497 52.2474 119.328 51.355 119.227 50.2948C119.139 49.3708 118.31 48.6921 117.381 48.6921Z" fill="#5A5A5A"/>
<path d="M128.125 95.0986H47.5902C46.6082 95.0986 45.8125 94.3026 45.8125 93.321C45.8125 92.3393 46.6082 91.5433 47.5902 91.5433H128.125C129.107 91.5433 129.903 92.3393 129.903 93.321C129.903 94.3026 129.107 95.0986 128.125 95.0986Z" fill="#5A5A5A"/>
<path d="M128.125 59.1799H47.5902C46.6082 59.1799 45.8125 58.3839 45.8125 57.4022C45.8125 56.4206 46.6082 55.6246 47.5902 55.6246H128.125C129.107 55.6246 129.903 56.4206 129.903 57.4022C129.903 58.3839 129.107 59.1799 128.125 59.1799Z" fill="#5A5A5A"/>
<path d="M128.125 118.142H47.5902C46.6082 118.142 45.8125 117.346 45.8125 116.365C45.8125 115.383 46.6082 114.587 47.5902 114.587H128.125C129.107 114.587 129.903 115.383 129.903 116.365C129.903 117.346 129.107 118.142 128.125 118.142Z" fill="#5A5A5A"/>
<path d="M53.4635 107.465H47.5902C46.6082 107.465 45.8125 106.669 45.8125 105.688C45.8125 104.706 46.6082 103.91 47.5902 103.91H53.4635C54.4455 103.91 55.2412 104.706 55.2412 105.688C55.2412 106.669 54.4455 107.465 53.4635 107.465Z" fill="#5A5A5A"/>
<path d="M91.1593 121.52H47.6664C46.7382 121.52 45.909 122.198 45.8209 123.122C45.7196 124.183 46.5508 125.075 47.59 125.075H91.1593C92.1409 125.075 92.9369 124.279 92.9369 123.297C92.9369 122.316 92.1409 121.52 91.1593 121.52Z" fill="#5A5A5A"/>
<path d="M117.381 121.52H100.224C99.2424 121.52 98.4464 122.316 98.4464 123.297C98.4464 124.279 99.2424 125.075 100.224 125.075H117.458C118.497 125.075 119.328 124.182 119.227 123.122C119.139 122.198 118.31 121.52 117.381 121.52Z" fill="#5A5A5A"/>
<path d="M128.125 132.008H47.5902C46.6082 132.008 45.8125 131.212 45.8125 130.23C45.8125 129.248 46.6082 128.452 47.5902 128.452H128.125C129.107 128.452 129.903 129.248 129.903 130.23C129.903 131.212 129.107 132.008 128.125 132.008Z" fill="#5A5A5A"/>
<path d="M157.468 18.7748C160.541 18.7748 163.033 21.2656 163.033 24.3383V115.642C163.033 116.995 162.709 118.329 162.089 119.532L159.048 125.429C158.386 126.713 156.55 126.713 155.888 125.429L152.848 119.532C152.228 118.329 151.904 116.995 151.904 115.642V24.3383C151.904 21.2656 154.395 18.7748 157.468 18.7748Z" fill="white"/>
<path d="M151.904 103.104H163.032V108.122H151.904V103.104Z" fill="#D4EBFF"/>
<path d="M163.033 31.4V24.3383C163.033 21.2656 160.541 18.7748 157.468 18.7748C154.395 18.7748 151.904 21.2656 151.904 24.3383V31.4H163.033Z" fill="#D4EBFF"/>
<path fill-rule="evenodd" clip-rule="evenodd" d="M157.47 128.169C156.133 128.169 154.923 127.431 154.31 126.243L151.27 120.346C150.523 118.899 150.128 117.272 150.128 115.642V69.068L150.129 24.3383C150.129 20.2906 153.422 16.9979 157.471 16.9979C161.519 16.9979 164.813 20.291 164.813 24.3383V115.642C164.813 117.271 164.418 118.898 163.671 120.346L160.631 126.243C160.018 127.431 158.807 128.169 157.47 128.169ZM153.684 115.642V69.068L153.684 24.3383C153.684 22.2507 155.383 20.5526 157.471 20.5526C159.558 20.5526 161.257 22.2507 161.257 24.3383V115.642C161.257 116.707 160.999 117.771 160.511 118.717L157.47 124.614L154.43 118.717C153.942 117.771 153.684 116.707 153.684 115.642Z" fill="#3A85F4"/>
<path d="M87.7864 145.499C87.315 145.499 86.8627 145.312 86.5292 144.978L83.0618 141.512C82.3674 140.818 82.3674 139.693 83.0618 138.999C83.7561 138.305 84.8814 138.305 85.5757 138.999L87.786 141.208L89.9954 138.999C90.6894 138.305 91.8154 138.305 92.5094 138.999C93.2037 139.693 93.2037 140.818 92.5094 141.512L89.0432 144.978C88.7101 145.312 88.2578 145.499 87.7864 145.499Z" fill="#3A85F4"/>
<defs>
<linearGradient id="paint0_linear_1_1473" x1="0.000121614" y1="91.0004" x2="179" y2="91.0004" gradientUnits="userSpaceOnUse">
<stop stop-color="#70BEFE" stop-opacity="0"/>
<stop offset="1" stop-color="#76C1FE"/>
</linearGradient>
</defs>
</svg>
