<svg width="300" height="301" viewBox="0 0 300 301" fill="none" xmlns="http://www.w3.org/2000/svg">
<g filter="url(#filter0_d_1_1471)">
<rect x="17" y="14" width="266" height="267" rx="14" fill="white"/>
</g>
<path d="M123.569 56.0005C87.7922 56.1903 69.8304 117.709 63.1269 149.332C56.4234 180.955 63.428 245.827 115.424 237.221C123.829 235.83 125.791 235.545 132.719 232.068C145.051 225.879 159.645 221.524 172.834 220.21C178.241 219.671 185.08 217.886 188.699 217.235C217.719 212.017 247.336 183.907 238.37 154.452C231.636 132.332 211.908 123.427 192.151 124.651C181.301 125.324 169.754 118.96 167.438 111.93C159.896 89.0317 151.222 55.854 123.569 56.0005Z" fill="url(#paint0_linear_1_1471)"/>
<path opacity="0.1" d="M218.469 84.3722C221.542 84.3722 224.033 86.863 224.033 89.9356V181.239C224.033 182.593 223.71 183.926 223.089 185.129L220.049 191.026C219.387 192.31 217.551 192.31 216.889 191.026L213.848 185.129C213.228 183.926 212.904 182.593 212.904 181.239V89.9356C212.904 86.863 215.396 84.3722 218.469 84.3722Z" fill="#3A85F4"/>
<path opacity="0.1" d="M197.667 228.112H99.9016C95.9744 228.112 92.791 224.929 92.791 221.003V91.1262C92.791 87.1997 95.9744 84.0168 99.9016 84.0168H197.667C201.594 84.0168 204.778 87.1997 204.778 91.1262V221.003C204.778 224.929 201.594 228.112 197.667 228.112Z" fill="#3A85F4"/>
<path d="M197.667 218.515H99.9013C95.9741 218.515 92.7907 215.332 92.7907 211.406V81.5288C92.7907 77.6023 95.9741 74.4194 99.9013 74.4194H197.667C201.594 74.4194 204.777 77.6023 204.777 81.5288V211.406C204.777 215.332 201.594 218.515 197.667 218.515Z" fill="#D4EBFF"/>
<path fill-rule="evenodd" clip-rule="evenodd" d="M197.668 220.292H99.9026C95.0016 220.292 91.0143 216.306 91.0143 211.405V81.5286C91.0143 76.6284 95.0016 72.6418 99.9026 72.6418H145.156H197.668C202.569 72.6418 206.556 76.6284 206.556 81.5286V211.405C206.556 216.306 202.569 220.292 197.668 220.292ZM99.9026 76.1965H145.156H197.668C200.609 76.1965 203.001 78.5885 203.001 81.5286V211.405C203.001 214.345 200.609 216.737 197.668 216.737H99.9026C96.962 216.737 94.5696 214.345 94.5696 211.405V81.5286C94.5696 78.5885 96.962 76.1965 99.9026 76.1965Z" fill="#3A85F4"/>
<path d="M196.244 84.7291V208.205C196.244 209.189 195.448 209.982 194.466 209.982H173.332C174.013 209.982 172.424 209.982 173.332 209.982H124.299C124.979 209.982 123.619 209.982 124.299 209.982H103.102C102.121 209.982 101.324 209.189 101.324 208.205V84.7291C101.324 83.7445 102.121 82.9518 103.102 82.9518H124.299L173.269 82.9518L194.466 82.9518C195.448 82.9518 196.244 83.7445 196.244 84.7291Z" fill="white"/>
<path d="M84.7923 123.522H83.7257V122.455C83.7257 121.474 82.9297 120.678 81.9481 120.678C80.9665 120.678 80.1704 121.474 80.1704 122.455V123.522H79.1038C78.1222 123.522 77.3262 124.317 77.3262 125.299C77.3262 126.281 78.1222 127.076 79.1038 127.076H80.1704V128.143C80.1704 129.125 80.9665 129.92 81.9481 129.92C82.9297 129.92 83.7257 129.125 83.7257 128.143V127.076H84.7923C85.7739 127.076 86.57 126.281 86.57 125.299C86.57 124.317 85.7739 123.522 84.7923 123.522Z" fill="#81C2FF"/>
<path d="M219.896 205.743H218.829V204.677C218.829 203.695 218.033 202.9 217.052 202.9C216.07 202.9 215.274 203.695 215.274 204.677V205.743H214.207C213.226 205.743 212.43 206.539 212.43 207.521C212.43 208.503 213.226 209.298 214.207 209.298H215.274V210.365C215.274 211.346 216.07 212.142 217.052 212.142C218.033 212.142 218.829 211.346 218.829 210.365V209.298H219.896C220.877 209.298 221.673 208.503 221.673 207.521C221.673 206.539 220.877 205.743 219.896 205.743Z" fill="#D4EBFF"/>
<path d="M78.0365 139.411H76.9699V138.345C76.9699 137.363 76.1738 136.567 75.1922 136.567C74.2106 136.567 73.4146 137.363 73.4146 138.345V139.411H72.348C71.3663 139.411 70.5703 140.207 70.5703 141.189C70.5703 142.17 71.3663 142.966 72.348 142.966H73.4146V144.032C73.4146 145.014 74.2106 145.81 75.1922 145.81C76.1738 145.81 76.9699 145.014 76.9699 144.032V142.966H78.0365C79.0181 142.966 79.8141 142.17 79.8141 141.189C79.8141 140.207 79.0181 139.411 78.0365 139.411Z" fill="#D4EBFF"/>
<path d="M80.8818 82.5972C80.4267 82.5972 79.972 82.4237 79.6246 82.0764L78.0375 80.4896L76.4504 82.0764C75.7561 82.7706 74.6308 82.7706 73.9365 82.0764C73.2421 81.3825 73.2421 80.2571 73.9365 79.5632L76.7807 76.7195C77.4751 76.0253 78.6003 76.0253 79.2947 76.7195L82.1389 79.5632C82.8333 80.2571 82.8333 81.3825 82.1389 82.0764C81.7916 82.4237 81.3368 82.5972 80.8818 82.5972Z" fill="#D4EBFF"/>
<path d="M229.726 199.378C229.271 199.378 228.816 199.204 228.469 198.857L226.882 197.27L225.294 198.857C224.6 199.551 223.475 199.551 222.781 198.857C222.086 198.163 222.086 197.038 222.781 196.344L225.625 193.5C226.319 192.806 227.444 192.806 228.139 193.5L230.983 196.344C231.677 197.038 231.677 198.163 230.983 198.857C230.636 199.204 230.181 199.378 229.726 199.378Z" fill="#D4EBFF"/>
<path d="M189.125 137.233H108.59C107.608 137.233 106.812 136.437 106.812 135.456C106.812 134.474 107.608 133.678 108.59 133.678H189.125C190.107 133.678 190.903 134.474 190.903 135.456C190.903 136.437 190.107 137.233 189.125 137.233Z" fill="#5A5A5A"/>
<path d="M189.125 101.315H108.59C107.608 101.315 106.812 100.519 106.812 99.5371C106.812 98.5555 107.608 97.7595 108.59 97.7595H189.125C190.107 97.7595 190.903 98.5555 190.903 99.5371C190.903 100.519 190.107 101.315 189.125 101.315Z" fill="#5A5A5A"/>
<path d="M114.464 126.556H108.59C107.608 126.556 106.812 125.76 106.812 124.779C106.812 123.797 107.608 123.001 108.59 123.001H114.464C115.446 123.001 116.241 123.797 116.241 124.779C116.241 125.76 115.446 126.556 114.464 126.556Z" fill="#5A5A5A"/>
<path d="M152.159 140.611H108.666C107.738 140.611 106.909 141.289 106.821 142.213C106.72 143.274 107.551 144.166 108.59 144.166H152.159C153.141 144.166 153.937 143.37 153.937 142.388C153.937 141.406 153.141 140.611 152.159 140.611Z" fill="#5A5A5A"/>
<path d="M178.381 140.611H161.224C160.242 140.611 159.446 141.407 159.446 142.388C159.446 143.37 160.242 144.166 161.224 144.166H178.458C179.497 144.166 180.328 143.274 180.227 142.213C180.139 141.289 179.31 140.611 178.381 140.611Z" fill="#5A5A5A"/>
<path d="M152.159 104.692H108.666C107.738 104.692 106.909 105.371 106.821 106.295C106.72 107.355 107.551 108.247 108.59 108.247H152.159C153.141 108.247 153.937 107.451 153.937 106.47C153.937 105.488 153.141 104.692 152.159 104.692Z" fill="#5A5A5A"/>
<path d="M178.381 104.692H161.224C160.242 104.692 159.446 105.488 159.446 106.47C159.446 107.451 160.242 108.247 161.224 108.247H178.458C179.497 108.247 180.328 107.355 180.227 106.295C180.139 105.371 179.31 104.692 178.381 104.692Z" fill="#5A5A5A"/>
<path d="M189.125 151.099H108.59C107.608 151.099 106.812 150.303 106.812 149.321C106.812 148.339 107.608 147.543 108.59 147.543H189.125C190.107 147.543 190.903 148.339 190.903 149.321C190.903 150.303 190.107 151.099 189.125 151.099Z" fill="#5A5A5A"/>
<path d="M189.125 115.18H108.59C107.608 115.18 106.812 114.384 106.812 113.402C106.812 112.421 107.608 111.625 108.59 111.625H189.125C190.107 111.625 190.903 112.421 190.903 113.402C190.903 114.384 190.107 115.18 189.125 115.18Z" fill="#5A5A5A"/>
<path d="M189.125 174.142H108.59C107.608 174.142 106.812 173.346 106.812 172.365C106.812 171.383 107.608 170.587 108.59 170.587H189.125C190.107 170.587 190.903 171.383 190.903 172.365C190.903 173.346 190.107 174.142 189.125 174.142Z" fill="#5A5A5A"/>
<path d="M114.464 163.465H108.59C107.608 163.465 106.812 162.669 106.812 161.688C106.812 160.706 107.608 159.91 108.59 159.91H114.464C115.446 159.91 116.241 160.706 116.241 161.688C116.241 162.669 115.446 163.465 114.464 163.465Z" fill="#5A5A5A"/>
<path d="M152.159 177.52H108.666C107.738 177.52 106.909 178.198 106.821 179.122C106.72 180.183 107.551 181.075 108.59 181.075H152.159C153.141 181.075 153.937 180.279 153.937 179.297C153.937 178.316 153.141 177.52 152.159 177.52Z" fill="#5A5A5A"/>
<path d="M178.381 177.52H161.224C160.242 177.52 159.446 178.316 159.446 179.297C159.446 180.279 160.242 181.075 161.224 181.075H178.458C179.497 181.075 180.328 180.182 180.227 179.122C180.139 178.198 179.31 177.52 178.381 177.52Z" fill="#5A5A5A"/>
<path d="M189.125 188.008H108.59C107.608 188.008 106.812 187.212 106.812 186.23C106.812 185.248 107.608 184.452 108.59 184.452H189.125C190.107 184.452 190.903 185.248 190.903 186.23C190.903 187.212 190.107 188.008 189.125 188.008Z" fill="#5A5A5A"/>
<path d="M218.468 74.7748C221.541 74.7748 224.033 77.2656 224.033 80.3383V171.642C224.033 172.995 223.709 174.329 223.089 175.532L220.048 181.429C219.386 182.713 217.55 182.713 216.888 181.429L213.848 175.532C213.228 174.329 212.904 172.995 212.904 171.642V80.3383C212.904 77.2656 215.395 74.7748 218.468 74.7748Z" fill="white"/>
<path d="M212.904 159.104H224.032V164.122H212.904V159.104Z" fill="#D4EBFF"/>
<path d="M224.033 87.4V80.3383C224.033 77.2656 221.541 74.7748 218.468 74.7748C215.395 74.7748 212.904 77.2656 212.904 80.3383V87.4H224.033Z" fill="#D4EBFF"/>
<path fill-rule="evenodd" clip-rule="evenodd" d="M218.47 184.169C217.133 184.169 215.923 183.431 215.31 182.243L212.27 176.346C211.523 174.899 211.128 173.272 211.128 171.642V125.068L211.129 80.3383C211.129 76.2906 214.422 72.9979 218.471 72.9979C222.519 72.9979 225.813 76.291 225.813 80.3383V171.642C225.813 173.271 225.418 174.898 224.671 176.346L221.631 182.243C221.018 183.431 219.807 184.169 218.47 184.169ZM214.684 171.642V125.068L214.684 80.3383C214.684 78.2507 216.383 76.5526 218.471 76.5526C220.558 76.5526 222.257 78.2507 222.257 80.3383V171.642C222.257 172.707 221.999 173.771 221.511 174.717L218.47 180.614L215.43 174.717C214.942 173.771 214.684 172.707 214.684 171.642Z" fill="#3A85F4"/>
<path d="M148.786 201.499C148.315 201.499 147.863 201.312 147.529 200.978L144.062 197.512C143.367 196.818 143.367 195.693 144.062 194.999C144.756 194.305 145.881 194.305 146.576 194.999L148.786 197.208L150.995 194.999C151.689 194.305 152.815 194.305 153.509 194.999C154.204 195.693 154.204 196.818 153.509 197.512L150.043 200.978C149.71 201.312 149.258 201.499 148.786 201.499Z" fill="#3A85F4"/>
<defs>
<filter id="filter0_d_1_1471" x="0" y="0" width="300" height="301" filterUnits="userSpaceOnUse" color-interpolation-filters="sRGB">
<feFlood flood-opacity="0" result="BackgroundImageFix"/>
<feColorMatrix in="SourceAlpha" type="matrix" values="0 0 0 0 0 0 0 0 0 0 0 0 0 0 0 0 0 0 127 0" result="hardAlpha"/>
<feOffset dy="3"/>
<feGaussianBlur stdDeviation="8.5"/>
<feColorMatrix type="matrix" values="0 0 0 0 0.168627 0 0 0 0 0.482353 0 0 0 0 0.827451 0 0 0 0.06 0"/>
<feBlend mode="normal" in2="BackgroundImageFix" result="effect1_dropShadow_1_1471"/>
<feBlend mode="normal" in="SourceGraphic" in2="effect1_dropShadow_1_1471" result="shape"/>
</filter>
<linearGradient id="paint0_linear_1_1471" x1="61.0001" y1="147" x2="240" y2="147" gradientUnits="userSpaceOnUse">
<stop stop-color="#70BEFE" stop-opacity="0"/>
<stop offset="1" stop-color="#76C1FE"/>
</linearGradient>
</defs>
</svg>
