<svg width="300" height="301" viewBox="0 0 300 301" fill="none" xmlns="http://www.w3.org/2000/svg">
<g filter="url(#filter0_d_1_1359)">
<rect x="17" y="14" width="266" height="267" rx="14" fill="white"/>
</g>
<path d="M176.222 87.5674C175.781 87.5674 175.341 87.5713 174.902 87.5793C163.967 87.7773 153.429 83.8117 144.929 76.9467C137.392 70.8593 127.773 67.235 117.303 67.3032C93.4121 67.4588 73.722 87.5796 74.1174 111.409C74.2237 117.825 75.7274 123.903 78.3378 129.351C82.7854 138.635 81.8263 149.679 75.6462 157.917C73.0939 161.32 71.0049 165.155 69.5035 169.363C61.5029 191.788 73.3217 216.715 95.7846 224.744C118.66 232.92 143.745 220.834 151.598 197.979C152.179 196.286 152.65 194.582 153.013 192.875C155.322 182.032 164.804 174.27 175.916 174.316C176.018 174.316 176.12 174.317 176.222 174.317C207.028 174.317 232 154.897 232 130.942C232 106.987 207.027 87.5674 176.222 87.5674Z" fill="url(#paint0_linear_1_1359)"/>
<path d="M130.729 87.6731H129.762V86.7087C129.762 85.8211 129.04 85.1013 128.15 85.1013C127.261 85.1013 126.539 85.8211 126.539 86.7087V87.6731H125.572C124.682 87.6731 123.961 88.3929 123.961 89.2805C123.961 90.168 124.682 90.8878 125.572 90.8878H126.539V91.8522C126.539 92.7398 127.261 93.4596 128.15 93.4596C129.04 93.4596 129.762 92.7398 129.762 91.8522V90.8878H130.729C131.618 90.8878 132.34 90.168 132.34 89.2805C132.34 88.3929 131.619 87.6731 130.729 87.6731Z" fill="#C4E2FF"/>
<path d="M172.154 195.915H171.188V194.95C171.188 194.063 170.466 193.343 169.576 193.343C168.686 193.343 167.965 194.063 167.965 194.95V195.915H166.998C166.108 195.915 165.387 196.634 165.387 197.522C165.387 198.409 166.108 199.129 166.998 199.129H167.965V200.094C167.965 200.981 168.686 201.701 169.576 201.701C170.466 201.701 171.188 200.981 171.188 200.094V199.129H172.154C173.044 199.129 173.766 198.409 173.766 197.522C173.766 196.634 173.044 195.915 172.154 195.915Z" fill="#81C2FF"/>
<path d="M97.7676 195.915H96.8008V194.95C96.8008 194.063 96.0792 193.343 95.1894 193.343C94.2997 193.343 93.5781 194.063 93.5781 194.95V195.915H92.6113C91.7216 195.915 91 196.634 91 197.522C91 198.409 91.7216 199.129 92.6113 199.129H93.5781V200.094C93.5781 200.981 94.2997 201.701 95.1894 201.701C96.0792 201.701 96.8008 200.981 96.8008 200.094V199.129H97.7676C98.6573 199.129 99.3789 198.409 99.3789 197.522C99.3789 196.634 98.6573 195.915 97.7676 195.915Z" fill="#81C2FF"/>
<path d="M185.6 206.312C185.187 206.312 184.775 206.155 184.46 205.842L183.021 204.407L181.583 205.842C180.953 206.469 179.933 206.469 179.304 205.842C178.675 205.214 178.675 204.196 179.304 203.568L181.882 200.997C182.512 200.369 183.532 200.369 184.161 200.997L186.739 203.568C187.368 204.196 187.368 205.214 186.739 205.842C186.425 206.155 186.012 206.312 185.6 206.312Z" fill="#81C2FF"/>
<path d="M115.641 85.2792C115.228 85.2792 114.816 85.1223 114.501 84.8086L113.062 83.3735L111.624 84.8086C110.994 85.4361 109.974 85.4361 109.345 84.8086C108.716 84.1807 108.716 83.1629 109.345 82.5354L111.923 79.9637C112.553 79.3362 113.573 79.3362 114.202 79.9637L116.78 82.5354C117.409 83.1633 117.409 84.181 116.78 84.8086C116.466 85.1223 116.053 85.2792 115.641 85.2792Z" fill="#BCDFFF"/>
<path d="M135.996 177.682H160.927V209.527H135.996V177.682Z" fill="white"/>
<path opacity="0.1" d="M211.71 82.8067C204.642 82.8067 198.806 88.0522 197.891 94.8529H157.827C156.048 94.8529 154.604 96.2931 154.604 98.0676V111.975H145.922C145.541 110.624 144.299 109.631 142.822 109.631H100.379C98.415 104.32 93.2962 100.532 87.2895 100.532C79.5863 100.532 73.3418 106.761 73.3418 114.445C73.3418 120.237 76.8903 125.201 81.9363 127.295V159.26C81.9363 161.034 83.3768 162.474 85.159 162.474H85.2833V184.289C85.2833 186.952 87.4477 189.111 90.1173 189.111H126.044V192.704C126.044 194.48 127.487 195.919 129.266 195.919H135.997V213.921H123.315C121.5 213.921 120.029 215.389 120.029 217.199C120.029 219.009 121.5 220.477 123.315 220.477H173.609C175.424 220.477 176.895 219.01 176.895 217.199C176.895 215.389 175.424 213.921 173.609 213.921H160.927V195.919H167.657C169.437 195.919 170.88 194.48 170.88 192.704V189.111H206.806C209.476 189.111 211.64 186.952 211.64 184.289V134.937H213.663C215.442 134.937 216.885 133.497 216.885 131.723V109.64C222.025 107.589 225.657 102.579 225.657 96.7203C225.657 89.0359 219.413 82.8067 211.71 82.8067Z" fill="#3A85F4"/>
<path d="M167.657 187.239H129.268C127.488 187.239 126.045 185.8 126.045 184.025V176.744H170.88V184.025C170.88 185.8 169.437 187.239 167.657 187.239Z" fill="white"/>
<path d="M206.806 180.432H90.1172C87.4475 180.432 85.2832 178.273 85.2832 175.61V108.119C85.2832 105.456 87.4475 103.297 90.1172 103.297H206.806C209.475 103.297 211.64 105.456 211.64 108.119V175.61C211.64 178.273 209.475 180.432 206.806 180.432Z" fill="#81C2FF"/>
<path d="M211.639 108.117V167.444H85.2852V108.117C85.2852 105.455 87.4476 103.295 90.1191 103.295H206.805C209.477 103.295 211.639 105.455 211.639 108.117Z" fill="white"/>
<path d="M173.61 211.797H123.315C121.5 211.797 120.029 210.33 120.029 208.52C120.029 206.709 121.5 205.242 123.315 205.242H173.61C175.424 205.242 176.895 206.709 176.895 208.52C176.896 210.33 175.425 211.797 173.61 211.797Z" fill="white"/>
<path d="M146.046 104.166V150.58C146.046 152.355 144.602 153.795 142.823 153.795H127.757L125.047 161.748C124.19 164.265 120.625 164.265 119.768 161.748L117.055 153.795H85.1602C83.378 153.795 81.9375 152.355 81.9375 150.58V104.166C81.9375 102.392 83.378 100.952 85.1602 100.952H142.823C144.602 100.952 146.046 102.392 146.046 104.166Z" fill="white"/>
<path d="M93.4492 144.919H136.841C137.731 144.919 138.452 144.199 138.452 143.311C138.452 142.424 137.731 141.704 136.841 141.704H93.4492C92.5591 141.704 91.8379 142.424 91.8379 143.311C91.8379 144.199 92.5591 144.919 93.4492 144.919Z" fill="#5A5A5A"/>
<path d="M93.4492 128.069H136.841C137.731 128.069 138.452 127.349 138.452 126.461C138.452 125.574 137.731 124.854 136.841 124.854H93.4492C92.5591 124.854 91.8379 125.574 91.8379 126.461C91.8379 127.349 92.5591 128.069 93.4492 128.069Z" fill="#5A5A5A"/>
<path d="M93.4492 133.695H136.841C137.731 133.695 138.452 132.975 138.452 132.088C138.452 131.2 137.731 130.481 136.841 130.481H93.4492C92.5591 130.481 91.8379 131.2 91.8379 132.088C91.8379 132.975 92.5591 133.695 93.4492 133.695Z" fill="#5A5A5A"/>
<path d="M120.881 116.816H136.839C137.73 116.816 138.451 116.096 138.451 115.208C138.451 114.321 137.73 113.601 136.839 113.601H120.881C119.991 113.601 119.27 114.321 119.27 115.208C119.27 116.096 119.991 116.816 120.881 116.816Z" fill="#5A5A5A"/>
<path d="M138.452 120.834C138.452 121.722 137.73 122.442 136.84 122.442H93.4473C92.5578 122.442 91.8359 121.722 91.8359 120.834C91.8359 119.947 92.5578 119.227 93.4473 119.227H136.84C137.73 119.227 138.452 119.947 138.452 120.834Z" fill="#5A5A5A"/>
<path d="M216.885 89.3882V123.043C216.885 124.817 215.441 126.258 213.662 126.258H180.33L177.617 134.211C176.759 136.725 173.195 136.725 172.338 134.211L169.628 126.258H157.826C156.047 126.258 154.604 124.817 154.604 123.043V89.3882C154.604 87.6137 156.047 86.1735 157.826 86.1735H213.662C215.441 86.1735 216.885 87.6137 216.885 89.3882Z" fill="white"/>
<path d="M87.2895 119.679C94.9925 119.679 101.237 113.45 101.237 105.766C101.237 98.0815 94.9925 91.8524 87.2895 91.8524C79.5864 91.8524 73.3418 98.0815 73.3418 105.766C73.3418 113.45 79.5864 119.679 87.2895 119.679Z" fill="#D4EBFF"/>
<path d="M201.961 146.311C202.851 146.311 203.572 145.591 203.572 144.703C203.572 143.816 202.851 143.096 201.961 143.096C201.071 143.096 200.35 143.816 200.35 144.703C200.35 145.591 201.071 146.311 201.961 146.311Z" fill="#5A5A5A"/>
<path d="M196.725 146.311C197.615 146.311 198.336 145.591 198.336 144.703C198.336 143.816 197.615 143.096 196.725 143.096C195.835 143.096 195.113 143.816 195.113 144.703C195.113 145.591 195.835 146.311 196.725 146.311Z" fill="#5A5A5A"/>
<path d="M186.502 152.113H202.461C203.351 152.113 204.072 151.393 204.072 150.506C204.072 149.618 203.351 148.898 202.461 148.898H186.502C185.612 148.898 184.891 149.618 184.891 150.506C184.891 151.393 185.612 152.113 186.502 152.113Z" fill="#5A5A5A"/>
<path d="M177.801 157.74H202.461C203.351 157.74 204.072 157.02 204.072 156.133C204.072 155.245 203.351 154.525 202.461 154.525H177.801C176.911 154.525 176.189 155.245 176.189 156.133C176.189 157.02 176.911 157.74 177.801 157.74Z" fill="#5A5A5A"/>
<path d="M211.709 101.954C219.412 101.954 225.657 95.7244 225.657 88.0403C225.657 80.3562 219.412 74.127 211.709 74.127C204.006 74.127 197.762 80.3562 197.762 88.0403C197.762 95.7244 204.006 101.954 211.709 101.954Z" fill="#D5EBFF"/>
<path d="M227.268 88.0403C227.268 79.4821 220.289 72.5197 211.709 72.5197C204.328 72.5197 198.135 77.6754 196.548 84.5652H157.827C155.162 84.5652 152.993 86.7284 152.993 89.3872V101.688H146.96C146.113 100.287 144.577 99.3451 142.821 99.3451H101.449C98.9961 93.983 93.574 90.2449 87.2895 90.2449C78.7101 90.2449 71.7305 97.2073 71.7305 105.766C71.7305 111.827 75.2335 117.084 80.3243 119.638V150.58C80.3243 152.722 81.732 154.54 83.672 155.167V175.609C83.672 179.154 86.5634 182.038 90.1173 182.038H124.432V184.024C124.432 186.683 126.601 188.846 129.266 188.846H134.385V203.634H123.315C120.614 203.634 118.417 205.825 118.417 208.519C118.417 211.213 120.614 213.404 123.315 213.404H173.609C176.309 213.404 178.506 211.213 178.506 208.519C178.506 205.825 176.31 203.634 173.609 203.634H162.538V188.846H167.657C170.322 188.846 172.491 186.683 172.491 184.024V182.038H206.806C210.36 182.038 213.251 179.154 213.251 175.609V127.865H213.663C216.328 127.865 218.497 125.702 218.497 123.043V102.004C223.685 99.484 227.268 94.1723 227.268 88.0403ZM74.9534 105.766C74.9534 98.9802 80.4874 93.4596 87.2898 93.4596C94.0922 93.4596 99.6261 98.9799 99.6261 105.766C99.6261 112.551 94.0922 118.071 87.2898 118.071C80.4874 118.071 74.9534 112.551 74.9534 105.766ZM83.547 120.829C84.7465 121.126 85.9994 121.286 87.2895 121.286C95.8688 121.286 102.848 114.324 102.848 105.766C102.848 104.667 102.731 103.595 102.513 102.56H142.821C143.709 102.56 144.432 103.281 144.432 104.167V150.58C144.432 151.467 143.709 152.188 142.821 152.188H127.757C127.067 152.188 126.454 152.626 126.232 153.278L123.52 161.231C123.269 161.97 122.604 162.027 122.406 162.027C122.209 162.027 121.544 161.97 121.292 161.231L118.58 153.278C118.358 152.626 117.745 152.188 117.055 152.188H85.1586C84.2701 152.188 83.5473 151.467 83.5473 150.58L83.547 120.829ZM160.927 206.849H173.609C174.533 206.849 175.284 207.598 175.284 208.519C175.284 209.44 174.533 210.19 173.609 210.19H123.315C122.391 210.19 121.64 209.44 121.64 208.519C121.64 207.598 122.391 206.849 123.315 206.849H151.065C151.955 206.849 152.677 206.129 152.677 205.242C152.677 204.354 151.955 203.634 151.065 203.634H137.608V188.847H159.316V205.242C159.316 206.129 160.037 206.849 160.927 206.849ZM169.268 184.025C169.268 184.911 168.545 185.632 167.657 185.632H129.267C128.378 185.632 127.655 184.911 127.655 184.025V182.038H169.268V184.025ZM215.274 123.043C215.274 123.93 214.552 124.651 213.663 124.651H180.329C179.64 124.651 179.026 125.089 178.804 125.74L176.093 133.694C175.841 134.433 175.176 134.49 174.978 134.49C174.78 134.49 174.116 134.433 173.864 133.694L171.153 125.74C170.931 125.089 170.317 124.651 169.627 124.651H157.827C156.939 124.651 156.216 123.93 156.216 123.043V103.611C156.216 102.723 155.494 102.004 154.605 102.004C153.715 102.004 152.993 102.723 152.993 103.611V123.043C152.993 125.702 155.162 127.865 157.827 127.865H168.473L170.813 134.729C171.429 136.537 173.064 137.705 174.978 137.705C176.892 137.705 178.527 136.537 179.144 134.729L181.483 127.865H210.029V175.609C210.029 177.381 208.583 178.824 206.806 178.824H90.1173C88.3404 178.824 86.8947 177.381 86.8947 175.609V155.403H115.901L118.241 162.267C118.857 164.074 120.492 165.242 122.406 165.242C124.32 165.242 125.955 164.074 126.572 162.267L128.911 155.403H142.821C145.486 155.403 147.655 153.24 147.655 150.581V104.903H154.604C155.214 104.903 155.773 104.558 156.046 104.014C156.158 103.79 156.216 103.544 156.216 103.295V89.3876C156.216 88.5013 156.939 87.7802 157.827 87.7802H196.157C196.156 87.867 196.15 87.9532 196.15 88.0406C196.15 96.5988 203.13 103.561 211.709 103.561C212.936 103.561 214.129 103.414 215.274 103.145V123.043ZM211.71 100.346C204.908 100.346 199.373 94.8259 199.373 88.0403C199.373 81.2547 204.907 75.7344 211.71 75.7344C218.512 75.7344 224.046 81.2547 224.046 88.0403C224.046 94.8259 218.512 100.346 211.71 100.346Z" fill="#3A85F4"/>
<path d="M207.415 110.809H164.023C163.133 110.809 162.412 110.089 162.412 109.201C162.412 108.314 163.133 107.594 164.023 107.594H207.415C208.305 107.594 209.027 108.314 209.027 109.201C209.027 110.089 208.305 110.809 207.415 110.809Z" fill="#5A5A5A"/>
<path d="M207.415 116.435H164.023C163.133 116.435 162.412 115.716 162.412 114.828C162.412 113.941 163.133 113.221 164.023 113.221H207.415C208.305 113.221 209.027 113.941 209.027 114.828C209.027 115.716 208.305 116.435 207.415 116.435Z" fill="#5A5A5A"/>
<path d="M209.028 103.575C209.028 104.462 208.306 105.182 207.417 105.182H164.023C163.134 105.182 162.412 104.462 162.412 103.575C162.412 102.688 163.134 101.967 164.023 101.967H207.417C208.306 101.967 209.028 102.688 209.028 103.575Z" fill="#5A5A5A"/>
<path d="M179.984 99.5557H164.025C163.135 99.5557 162.414 98.8359 162.414 97.9484C162.414 97.0608 163.135 96.341 164.025 96.341H179.984C180.874 96.341 181.595 97.0608 181.595 97.9484C181.595 98.8359 180.874 99.5557 179.984 99.5557Z" fill="#5A5A5A"/>
<path d="M208.507 202.029L212.015 198.522L222.66 209.166L219.152 212.674L208.507 202.029Z" fill="white"/>
<path d="M211.908 201.91C203.923 209.895 190.93 209.895 182.944 201.91C174.959 193.924 174.959 180.931 182.944 172.946C190.929 164.96 203.923 164.96 211.908 172.946C219.893 180.931 219.893 193.924 211.908 201.91Z" fill="#81C2FF"/>
<path d="M197.417 202.831C205.924 202.831 212.82 195.935 212.82 187.428C212.82 178.921 205.924 172.025 197.417 172.025C188.911 172.025 182.014 178.921 182.014 187.428C182.014 195.935 188.911 202.831 197.417 202.831Z" fill="white" fill-opacity="0.86"/>
<path d="M206.958 175.324L185.324 196.959C184.468 195.875 183.781 194.702 183.26 193.475L203.475 173.261C204.702 173.781 205.875 174.469 206.958 175.324Z" fill="white"/>
<path d="M212.691 185.384L195.384 202.691C192.274 202.28 189.265 200.919 186.832 198.611L208.611 176.832C210.919 179.265 212.28 182.274 212.691 185.384Z" fill="white"/>
<path d="M239.421 226.073L236.072 229.422C235.411 230.083 234.34 230.083 233.679 229.422L217.809 213.553C217.149 212.892 217.149 211.821 217.809 211.16L221.159 207.811C221.82 207.15 222.891 207.15 223.551 207.811L239.421 223.68C240.081 224.341 240.081 225.412 239.421 226.073Z" fill="white"/>
<path d="M231.034 226.776L233.68 229.422C234.341 230.083 235.412 230.083 236.072 229.422L239.422 226.073C240.082 225.412 240.082 224.341 239.422 223.68L236.776 221.034L231.034 226.776Z" fill="#81C2FF"/>
<path d="M220.124 215.881L225.865 210.14L229.654 213.929L223.913 219.67L220.124 215.881Z" fill="#81C2FF"/>
<path d="M196.245 193.029C195.716 193.029 195.288 192.601 195.288 192.072V190.921C195.288 190.178 195.483 189.444 195.851 188.799C196.415 187.812 197.366 187.079 198.46 186.79C200.131 186.348 201.298 184.831 201.298 183.1C201.298 182.061 200.888 181.089 200.143 180.365C199.398 179.64 198.415 179.258 197.373 179.286C195.374 179.341 193.711 181.013 193.667 183.013C193.658 183.431 193.715 183.842 193.837 184.235C193.994 184.74 193.712 185.276 193.208 185.433C192.703 185.59 192.167 185.308 192.01 184.803C191.826 184.212 191.74 183.595 191.753 182.971C191.821 179.916 194.267 177.457 197.32 177.372C198.885 177.33 200.359 177.904 201.477 178.992C202.596 180.081 203.212 181.54 203.212 183.1C203.212 185.699 201.459 187.977 198.949 188.64C198.348 188.799 197.824 189.203 197.513 189.748C197.309 190.105 197.202 190.51 197.202 190.92V192.072C197.202 192.601 196.773 193.029 196.245 193.029Z" fill="#5A5A5A"/>
<path d="M196.245 196.703C195.716 196.703 195.288 196.274 195.288 195.746V195.726C195.288 195.197 195.716 194.769 196.245 194.769C196.773 194.769 197.202 195.197 197.202 195.726V195.746C197.202 196.275 196.773 196.703 196.245 196.703Z" fill="#5A5A5A"/>
<path fill-rule="evenodd" clip-rule="evenodd" d="M240.099 223.004L224.731 207.636C223.756 206.661 223.049 206.406 222.817 206.4C222.666 206.374 222.513 206.358 222.357 206.358C222.024 206.358 221.702 206.421 221.401 206.538L214.822 199.959C220.862 191.585 220.118 179.8 212.587 172.269C204.228 163.91 190.627 163.91 182.27 172.269C178.227 176.312 176 181.695 176 187.427C176 193.16 178.227 198.543 182.27 202.586C186.449 206.765 191.938 208.855 197.428 208.855C201.831 208.855 206.233 207.509 209.959 204.821L216.538 211.4C216.422 211.701 216.359 212.024 216.359 212.356C216.359 213.064 216.634 213.729 217.135 214.229L222.817 219.912L233.004 230.099C233.504 230.599 234.17 230.875 234.877 230.875C235.585 230.875 236.25 230.599 236.75 230.099L240.099 226.75C241.132 225.717 241.132 224.037 240.099 223.004ZM177.914 187.427C177.914 192.649 179.941 197.551 183.623 201.233C191.235 208.845 203.621 208.845 211.233 201.233C218.845 193.621 218.845 181.235 211.233 173.623C207.427 169.816 202.427 167.913 197.428 167.913C192.428 167.913 187.429 169.816 183.623 173.622C179.941 177.304 177.914 182.206 177.914 187.427ZM213.625 201.47C213.294 201.851 212.949 202.224 212.586 202.586C212.224 202.948 211.851 203.294 211.47 203.625L217.731 209.887L219.887 207.731L213.625 201.47ZM235.396 228.746L238.746 225.396C239.032 225.11 239.032 224.644 238.746 224.358L222.876 208.488C222.737 208.349 222.553 208.273 222.356 208.273C222.16 208.273 221.976 208.349 221.837 208.488L218.488 211.837C218.349 211.976 218.272 212.16 218.272 212.357C218.272 212.553 218.349 212.737 218.488 212.876L234.357 228.746C234.635 229.023 235.119 229.023 235.396 228.746Z" fill="#3A85F4"/>
<ellipse cx="212.034" cy="86.9376" rx="4.93234" ry="4.93762" fill="#3A85F4"/>
<path fill-rule="evenodd" clip-rule="evenodd" d="M204 99.018C204.212 96.712 205.244 93.8907 208.268 92.7728C209.394 93.6133 212.458 94.79 215.711 92.7728C217.114 93.2384 219.553 95.0002 220.02 98.6201C217.696 100.3 214.844 101.293 211.761 101.301H211.679C208.847 101.293 206.211 100.456 204 99.018Z" fill="#3A85F4"/>
<ellipse cx="87.0339" cy="103.938" rx="4.93234" ry="4.93762" fill="#3A85F4"/>
<path fill-rule="evenodd" clip-rule="evenodd" d="M79 116.018C79.2122 113.712 80.2437 110.891 83.2684 109.773C84.3937 110.613 87.4577 111.79 90.7107 109.773C92.1138 110.238 94.5527 112 95.0195 115.62C92.6958 117.3 89.8439 118.293 86.7607 118.301H86.6786C83.8475 118.293 81.2113 117.456 79 116.018Z" fill="#3A85F4"/>
<defs>
<filter id="filter0_d_1_1359" x="0" y="0" width="300" height="301" filterUnits="userSpaceOnUse" color-interpolation-filters="sRGB">
<feFlood flood-opacity="0" result="BackgroundImageFix"/>
<feColorMatrix in="SourceAlpha" type="matrix" values="0 0 0 0 0 0 0 0 0 0 0 0 0 0 0 0 0 0 127 0" result="hardAlpha"/>
<feOffset dy="3"/>
<feGaussianBlur stdDeviation="8.5"/>
<feColorMatrix type="matrix" values="0 0 0 0 0.168627 0 0 0 0 0.482353 0 0 0 0 0.827451 0 0 0 0.06 0"/>
<feBlend mode="normal" in2="BackgroundImageFix" result="effect1_dropShadow_1_1359"/>
<feBlend mode="normal" in="SourceGraphic" in2="effect1_dropShadow_1_1359" result="shape"/>
</filter>
<linearGradient id="paint0_linear_1_1359" x1="192.424" y1="208.062" x2="73.6574" y2="71.2528" gradientUnits="userSpaceOnUse">
<stop stop-color="#5EB6FE" stop-opacity="0"/>
<stop offset="1" stop-color="#5FB6FE"/>
</linearGradient>
</defs>
</svg>
