<svg width="32" height="25" viewBox="0 0 32 25" fill="none" xmlns="http://www.w3.org/2000/svg">
<path d="M0.528646 9.83326C0.528646 11.3761 0.960102 12.8359 1.72907 14.1353C2.80326 15.9506 4.53606 17.4529 6.6714 18.4315C8.38831 19.2183 10.3654 19.6665 12.4697 19.6665C19.0646 19.6665 24.4108 15.264 24.4108 9.83326C24.4108 4.4025 19.0646 0 12.4697 0C5.87484 0 0.528646 4.4025 0.528646 9.83326Z" fill="#B1CEFF"/>
<path d="M6.6714 18.4315C5.44668 18.3862 2.53796 18.4846 0.700872 19.241C0.605192 19.3041 0.356419 19.4207 0.126783 19.3829C-0.102852 19.3451 0.0311012 19.0204 0.126783 18.8628C0.582613 17.4446 1.54123 14.5135 1.72907 14.1353C2.80326 15.9506 4.53606 17.4529 6.6714 18.4315Z" fill="#B1CEFF"/>
<path d="M29.2674 22.7907L29.2676 22.791C29.2685 22.7931 29.2683 22.7929 29.2674 22.7907ZM26.9618 22.8905C27.7537 22.9715 28.5451 23.1181 29.1357 23.3519C29.2177 23.3977 29.3162 23.4418 29.4239 23.4757C29.566 23.5203 29.782 23.5653 30.0256 23.5252C30.2774 23.4837 30.5307 23.3308 30.664 23.0514C30.7722 22.8247 30.7534 22.6106 30.7367 22.505C30.7108 22.3419 30.6491 22.1958 30.5951 22.0921C30.422 21.5542 30.166 20.768 29.9331 20.0713C29.8115 19.7078 29.6953 19.366 29.6 19.0956C29.5732 19.0196 29.5463 18.9438 29.52 18.8718C30.0514 17.8638 30.3498 16.7439 30.3498 15.5628C30.3498 10.9117 25.8278 7.37598 20.5688 7.37598C15.3098 7.37598 10.7878 10.9117 10.7878 15.5628C10.7878 20.214 15.3098 23.7497 20.5688 23.7497C22.2094 23.7497 23.7607 23.412 25.125 22.811C25.5667 22.8019 26.2415 22.8168 26.9618 22.8905Z" fill="#B1CEFF" stroke="#F9FBFF" stroke-width="1.5"/>
</svg>
