<svg width="46" height="47" viewBox="0 0 46 47" fill="none" xmlns="http://www.w3.org/2000/svg">
<ellipse cx="23" cy="22.9663" rx="23" ry="22.9663" fill="#EBF3FF"/>
<path fill-rule="evenodd" clip-rule="evenodd" d="M16.3402 33.3013C25.6471 29.0165 38.6228 37.3945 38.6228 37.3945V38.926C32.7449 45.9327 19.1008 49.0468 10.2858 42.0982C10.891 39.516 11.4577 37.7683 11.9544 37.2218C12.0046 37.1666 12.0557 37.1103 12.1075 37.0532C13.3055 35.7331 14.9189 33.9555 16.3402 33.3013Z" fill="url(#paint0_linear_1_1848)"/>
<path fill-rule="evenodd" clip-rule="evenodd" d="M5.68719 38.08C10.0596 35.358 15.6029 33.0895 15.6029 33.0895L14.0344 44.3765C9.74631 42.8194 6.6504 39.2706 5.68719 38.08Z" fill="url(#paint1_linear_1_1848)"/>
<path d="M18.3281 37.1861C21.1957 37.7476 25.4083 37.149 28.4924 35.119C27.4254 32.6828 26.6965 30.1125 26.326 27.4794C26.3143 27.3891 26.3054 27.3018 26.2965 27.2171C26.2188 26.637 26.2069 26.05 26.2609 25.4672H18.8472C18.8472 25.4672 16.8202 26.3926 16.8202 27.032C16.8202 27.3743 16.8173 27.7016 16.8113 28.0137C16.7964 28.8651 16.7624 29.6084 16.7179 30.2466C16.6691 31.2734 16.5423 32.295 16.3383 33.3026C16.3383 33.3026 15.4325 36.6189 18.3281 37.1861Z" fill="#FFDAC3"/>
<path d="M16.7162 30.2463C22.3328 31.3301 25.5934 28.265 26.3244 27.4791C26.4282 27.3664 26.4816 27.3 26.4816 27.3C26.4224 27.2701 26.3599 27.2437 26.2948 27.2168C24.2042 26.3715 19.4593 27.0438 16.8097 28.0134C16.7947 28.8648 16.7607 29.6081 16.7162 30.2463Z" fill="#F7C09B"/>
<path d="M28.1609 24.2503C27.1572 29.6442 20.1872 29.4669 17.175 29.128C16.3273 29.0339 15.7939 28.9258 15.7939 28.9258C14.8382 28.6708 14.3049 27.1675 14.057 25.1984C13.5653 21.3017 14.1867 15.5811 14.8457 14.1181C15.838 11.9166 17.7069 9.53552 24.7262 11.2533C31.7465 12.9727 29.4487 17.3392 28.1609 24.2503Z" fill="#FFDAC3"/>
<path d="M14.5852 11.1084C15.5446 9.78224 17.5787 8.16168 19.4262 7.1637C23.3952 5.0196 28.475 7.23118 28.4962 7.24043C34.2295 9.75751 35.7266 14.1376 32.687 20.9604C29.4728 28.1753 26.4123 27.3636 26.4123 27.3636C26.4123 27.3636 27.0619 26.96 27.0032 24.7113C26.9998 24.5835 26.9947 24.4766 26.9889 24.3847C26.9703 24.1569 27.0036 23.9279 27.0865 23.7148C27.1693 23.5017 27.2994 23.3101 27.467 23.1544C28.1791 22.5199 28.5263 20.6003 27.9298 20.066C27.2105 19.4213 26.1997 20.2043 25.8767 20.8066C25.8153 20.9106 25.7331 21.0008 25.6353 21.0717C25.5374 21.1425 25.426 21.1925 25.308 21.2185C25.19 21.2446 25.0679 21.246 24.9492 21.2229C24.8306 21.1997 24.7181 21.1525 24.6185 21.084C22.834 19.9575 23.9932 17.7046 22.2881 16.3261C20.5829 14.9479 17.1228 16.105 14.565 15.0067C11.2166 13.7608 13.8622 12.1079 14.5852 11.1084Z" fill="url(#paint2_linear_1_1848)"/>
<path fill-rule="evenodd" clip-rule="evenodd" d="M36.5335 34.78C37.9218 35.3358 40.0644 36.2462 40.7714 37.5564C40.7714 37.5564 35.0853 45.5435 23.3903 45.9327C24.1204 43.3582 25.0167 38.4299 25.7853 36.4599C26.488 34.6638 27.1598 33.3847 27.7187 33.1107H27.7202C27.7202 33.1107 29.2094 32.6941 30.6151 33.3917C32.4418 33.6839 36.1682 34.6337 36.5335 34.78Z" fill="url(#paint3_linear_1_1848)"/>
<path fill-rule="evenodd" clip-rule="evenodd" d="M30.6599 33.4213C29.5231 31.7926 27.1588 31.38 27.1588 31.38C25.8055 32.5545 24.0286 41.2691 23.0004 45.9324H23.3902C25.8722 41.501 30.6599 33.4213 30.6599 33.4213Z" fill="white"/>
<path fill-rule="evenodd" clip-rule="evenodd" d="M14.1013 34.1437C14.4239 33.3343 15.8555 31.8697 16.6022 31.5885C16.584 32.1683 16.496 32.7438 16.3399 33.3026C15.6713 35.9009 14.7593 41.2488 14.0333 44.3763L14.1013 34.1437Z" fill="white"/>
<defs>
<linearGradient id="paint0_linear_1_1848" x1="14.5403" y1="41.4289" x2="23.6007" y2="43.2556" gradientUnits="userSpaceOnUse">
<stop stop-color="#4498E8"/>
<stop offset="1" stop-color="#5BB2FB"/>
</linearGradient>
<linearGradient id="paint1_linear_1_1848" x1="10.645" y1="33.0895" x2="10.645" y2="44.3765" gradientUnits="userSpaceOnUse">
<stop stop-color="#CFE6E6"/>
<stop offset="1" stop-color="white"/>
</linearGradient>
<linearGradient id="paint2_linear_1_1848" x1="18.4129" y1="8.69486" x2="29.7383" y2="26.3771" gradientUnits="userSpaceOnUse">
<stop stop-color="#626262"/>
<stop offset="1" stop-color="#333333"/>
</linearGradient>
<linearGradient id="paint3_linear_1_1848" x1="32.0809" y1="32.9873" x2="32.0809" y2="45.9327" gradientUnits="userSpaceOnUse">
<stop stop-color="#CFE6E6"/>
<stop offset="1" stop-color="white"/>
</linearGradient>
</defs>
</svg>
