<svg width="167" height="152" viewBox="0 0 167 152" fill="none" xmlns="http://www.w3.org/2000/svg">
<path d="M163.47 37.4013C156.21 19.0533 133.846 8.05029 114.905 15.3317C93.2847 23.6429 100.453 57.7999 80.815 64.7069C70.2067 68.4379 54.5245 54.5008 43.8067 52.3634C24.0568 48.4253 6.17758 62.2666 1.77499 81.4342C-2.71657 100.989 4.4874 127.107 26.1185 132.415C51.8852 138.737 65.3069 115.731 86.9224 109.125C109.104 102.346 133.768 118.356 152.131 98.8762C165.698 84.4846 170.658 55.5697 163.47 37.4013Z" fill="url(#paint0_linear_1_1527)"/>
<path opacity="0.11" d="M109.202 8.38571H42.3094C38.5433 8.38571 35.4903 11.4181 35.4903 15.1588V37.3171C30.1541 38.8314 26.2474 43.6977 26.2474 49.4713C26.2474 55.2449 30.1544 60.1115 35.4903 61.6254V144.815C35.4903 148.556 38.5433 151.588 42.3094 151.588H109.202C112.968 151.588 116.021 148.556 116.021 144.815V15.1588C116.021 11.4181 112.968 8.38571 109.202 8.38571Z" fill="#3A85F4"/>
<path d="M123.814 8.38567V138.042C123.814 141.783 120.761 144.815 116.995 144.815H50.1023C46.3361 144.815 43.2831 141.783 43.2831 138.042V8.38567C43.2831 4.64499 46.3361 1.61258 50.1023 1.61258H116.995C120.761 1.61258 123.814 4.64499 123.814 8.38567Z" fill="white"/>
<path d="M123.814 19.0294V8.38567C123.814 4.64499 120.761 1.61258 116.995 1.61258H50.1023C46.3361 1.61258 43.2831 4.64499 43.2831 8.38567V19.0291L123.814 19.0294Z" fill="#D4EBFF"/>
<path d="M54.6759 12.5094C55.6784 12.5094 56.4911 11.7022 56.4911 10.7065C56.4911 9.71076 55.6784 8.90356 54.6759 8.90356C53.6733 8.90356 52.8607 9.71076 52.8607 10.7065C52.8607 11.7022 53.6733 12.5094 54.6759 12.5094Z" fill="white"/>
<path d="M61.1424 12.5094C62.1449 12.5094 62.9576 11.7022 62.9576 10.7065C62.9576 9.71076 62.1449 8.90356 61.1424 8.90356C60.1399 8.90356 59.3272 9.71076 59.3272 10.7065C59.3272 11.7022 60.1399 12.5094 61.1424 12.5094Z" fill="white"/>
<path d="M67.6037 8.90356C68.6061 8.90356 69.4189 9.71085 69.4189 10.7065C69.4189 11.7021 68.6061 12.5094 67.6037 12.5094C66.6012 12.5094 65.7885 11.7021 65.7885 10.7065C65.7885 9.71085 66.6012 8.90356 67.6037 8.90356Z" fill="white"/>
<path d="M42.737 57.1839C49.7748 57.1839 55.4801 51.5172 55.4801 44.5269C55.4801 37.5367 49.7748 31.87 42.737 31.87C35.6992 31.87 29.9939 37.5367 29.9939 44.5269C29.9939 51.5172 35.6992 57.1839 42.737 57.1839Z" fill="#D4EBFF"/>
<path d="M81.8413 82.0086V111.959C81.8413 113.315 81.0983 114.414 80.1813 114.414H71.8812C70.9645 114.414 70.2211 113.315 70.2211 111.959V82.0086C70.2211 80.6529 70.9645 79.5536 71.8812 79.5536H80.1813C81.0983 79.5536 81.8413 80.6529 81.8413 82.0086Z" fill="#D4EBFF"/>
<path d="M64.858 86.994V112.337C64.858 113.484 64.1146 114.414 63.198 114.414H54.8978C53.9812 114.414 53.2378 113.484 53.2378 112.337V86.994C53.2378 85.847 53.9812 84.9167 54.8978 84.9167H63.198C64.1146 84.9167 64.858 85.847 64.858 86.994Z" fill="#D4EBFF"/>
<path d="M97.9308 72.2259V112.803C97.9308 114.186 97.1874 115.308 96.2708 115.308H87.9706C87.054 115.308 86.3106 114.186 86.3106 112.803V72.2259C86.3106 70.8428 87.054 69.7211 87.9706 69.7211H96.2708C97.1874 69.7211 97.9308 70.8428 97.9308 72.2259Z" fill="#D4EBFF"/>
<path d="M114.02 63.7692V112.321C114.02 113.477 113.277 114.414 112.36 114.414H104.06C103.143 114.414 102.4 113.477 102.4 112.321V63.7692C102.4 62.6135 103.143 61.6764 104.06 61.6764H112.36C113.277 61.6764 114.02 62.6135 114.02 63.7692Z" fill="#D4EBFF"/>
<path d="M71.6438 30.3806H95.5103C96.2906 30.3806 97.0079 29.8617 97.1615 29.1018C97.3709 28.0652 96.578 27.1554 95.5716 27.1554H71.5828C70.5761 27.1554 69.7838 28.0652 69.9929 29.1018C70.1462 29.8617 70.8635 30.3806 71.6438 30.3806Z" fill="#5A5A5A"/>
<path d="M85.096 41.834H100.636C101.144 41.834 101.611 41.3617 101.711 40.67C101.848 39.7265 101.331 38.8983 100.676 38.8983H85.0563C84.4008 38.8983 83.8849 39.7265 84.0211 40.67C84.1209 41.3617 84.588 41.834 85.096 41.834Z" fill="#5A5A5A"/>
<path d="M63.4303 35.9625H86.093C86.834 35.9625 87.5151 35.4902 87.661 34.7985C87.8599 33.855 87.1069 33.0268 86.1513 33.0268H63.3724C62.4165 33.0268 61.6641 33.855 61.8627 34.7985C62.0082 35.4902 62.6894 35.9625 63.4303 35.9625Z" fill="#5A5A5A"/>
<path d="M91.5631 35.9625H104.513C104.937 35.9625 105.326 35.4902 105.409 34.7985C105.523 33.855 105.093 33.0268 104.546 33.0268H91.5299C90.9837 33.0268 90.5538 33.855 90.6673 34.7985C90.7504 35.4902 91.1397 35.9625 91.5631 35.9625Z" fill="#5A5A5A"/>
<path d="M67.1774 41.834H80.1276C80.551 41.834 80.9402 41.3617 81.0235 40.67C81.1372 39.7265 80.7069 38.8983 80.1609 38.8983H67.1443C66.5981 38.8983 66.1682 39.7265 66.2817 40.67C66.3648 41.3617 66.754 41.834 67.1774 41.834Z" fill="#5A5A5A"/>
<path d="M117.311 146.428H99.3242C99.2362 146.428 99.1485 146.395 99.0849 146.335C97.5993 144.929 98.5802 143.203 99.9665 143.203H116.122C119.473 143.203 122.189 140.505 122.189 137.176V54.338C122.189 54.2506 122.222 54.1635 122.283 54.1003C123.698 52.6247 125.436 53.5991 125.436 54.9759V138.357C125.437 142.815 121.799 146.428 117.311 146.428Z" fill="#3A85F4"/>
<path d="M83.63 135.639C83.1988 135.639 82.7854 135.469 82.4808 135.166L80.5877 133.282C79.9542 132.652 79.9551 131.631 80.5896 131.002C81.2242 130.373 82.2522 130.373 82.8858 131.004L83.63 131.744L84.3743 131.004C85.0078 130.373 86.0359 130.372 86.6704 131.002C87.3049 131.631 87.3059 132.652 86.6723 133.282L84.7792 135.166C84.475 135.469 84.0613 135.639 83.63 135.639Z" fill="#3A85F4"/>
<path d="M116.993 0H50.1007C45.438 0 41.6579 3.75455 41.6579 8.38573V30.1541C34.1727 30.637 28.2307 36.8353 28.2307 44.3899C28.2307 51.9445 34.1727 58.1431 41.6579 58.6256V138.479C41.6579 142.869 45.2409 146.428 49.6607 146.428H91.3664C91.4544 146.428 91.5421 146.395 91.6057 146.335C93.0914 144.929 92.1104 143.203 90.7238 143.203H50.1007C47.2311 143.203 44.9051 140.892 44.9051 138.042V58.5205C51.7295 57.421 56.9572 51.5294 56.9572 44.445C56.9572 37.3607 51.7295 31.4694 44.9051 30.3699V20.6418H122.189V45.8319C122.189 46.6076 122.712 47.3207 123.478 47.4723C124.521 47.6787 125.436 46.894 125.436 45.898V8.358C125.436 3.74939 121.649 0 116.993 0ZM53.8571 44.5273C53.8571 50.6173 48.869 55.5716 42.7376 55.5716C36.6062 55.5716 31.6182 50.6173 31.6182 44.5273C31.6182 38.4373 36.6062 33.4829 42.7376 33.4829C48.869 33.4829 53.8571 38.4373 53.8571 44.5273ZM122.189 17.4165H44.9051V8.38573C44.9051 5.53555 47.2311 3.22528 50.1007 3.22528H116.994C119.863 3.22528 122.189 5.53555 122.189 8.38573L122.189 17.4165Z" fill="#3A85F4"/>
<path d="M48.484 74H73.8333C75.3542 74 85.6865 65.4552 86.7612 64.5188L91.8037 60.1317C92.1624 59.8199 92.639 59.6482 93.1461 59.6482H107.734C109.255 59.6482 110.715 59.1222 111.791 58.1861L117.964 52.8148C118.322 52.503 118.808 52.3276 119.316 52.3276L127.515 52.3276C128.434 52.3276 129.279 51.7922 129.46 51.0082C129.706 49.9387 128.772 49 127.587 49L119.283 49C117.761 49 116.302 49.5258 115.226 50.4618L109.053 55.8332C108.695 56.145 108.208 56.3203 107.701 56.3203H93.1633C91.6419 56.3203 90.1833 56.8461 89.1075 57.7821L84.0814 62.1552C83.723 62.4674 74.3346 70.6725 73.8275 70.6725H48.4117C47.2265 70.6725 46.2926 71.6112 46.5392 72.6807C46.7201 73.4646 47.565 74 48.484 74Z" fill="#3A85F4"/>
<path d="M137.796 24.5122H136.802V23.525C136.802 22.7499 136.28 22.0375 135.515 21.8849C134.471 21.6769 133.555 22.4645 133.555 23.464V24.5122H132.561C131.781 24.5122 131.064 25.0312 130.91 25.791C130.701 26.8276 131.494 27.7375 132.5 27.7375H133.555V28.7248C133.555 29.4998 134.078 30.2123 134.843 30.3648C135.886 30.5728 136.802 29.7852 136.802 28.7857V27.7375H137.858C138.864 27.7375 139.657 26.8276 139.448 25.791C139.294 25.0312 138.577 24.5122 137.796 24.5122Z" fill="#D4EBFF"/>
<path d="M147.213 113.207H146.219V112.22C146.219 111.445 145.697 110.733 144.932 110.58C143.888 110.372 142.972 111.16 142.972 112.159V113.207H141.978C141.198 113.207 140.481 113.726 140.327 114.486C140.117 115.523 140.91 116.433 141.917 116.433H142.972V117.42C142.972 118.195 143.495 118.907 144.26 119.06C145.303 119.268 146.219 118.48 146.219 117.481V116.433H147.275C148.281 116.433 149.074 115.523 148.865 114.486C148.711 113.726 147.994 113.207 147.213 113.207Z" fill="#D4EBFF"/>
<path d="M139.678 99.8802C139.205 99.8802 138.729 99.8089 138.264 99.6654C137.055 99.2919 136.064 98.473 135.475 97.3593C134.886 96.2457 134.768 94.9707 135.144 93.7696C135.52 92.5685 136.345 91.5845 137.466 90.9994C138.587 90.4144 139.871 90.2976 141.08 90.6711C142.29 91.0446 143.281 91.8635 143.87 92.9772C144.459 94.0908 144.576 95.3658 144.2 96.5669C143.824 97.768 142.999 98.752 141.878 99.3371C141.188 99.6974 140.436 99.8802 139.678 99.8802ZM139.673 93.6835C139.036 93.6835 138.444 94.0918 138.245 94.7272C138.127 95.1058 138.164 95.5077 138.349 95.8586C138.535 96.2095 138.847 96.4679 139.229 96.5856C140.014 96.8281 140.855 96.3908 141.1 95.609C141.218 95.2303 141.181 94.8285 140.995 94.4776C140.81 94.1267 140.498 93.8683 140.116 93.7506C139.969 93.7051 139.82 93.6835 139.673 93.6835Z" fill="#D4EBFF"/>
<path d="M20.7438 79.0601C20.2703 79.0601 19.7949 78.9888 19.3299 78.8453C18.1207 78.4718 17.1299 77.6529 16.5409 76.5392C15.9515 75.4255 15.8343 74.1509 16.2103 72.9495C16.5864 71.7481 17.4108 70.764 18.5321 70.179C19.653 69.5939 20.9367 69.4772 22.1462 69.8506C24.6427 70.6218 26.0426 73.2669 25.2662 75.7465C24.8902 76.9476 24.0657 77.9316 22.9444 78.517C22.2537 78.8776 21.502 79.0601 20.7438 79.0601ZM20.736 72.8627C20.497 72.8627 20.2599 72.9205 20.0424 73.034C19.6891 73.2185 19.429 73.5288 19.3104 73.9074C19.0659 74.6892 19.5069 75.523 20.2937 75.7658C20.6753 75.8832 21.0795 75.8468 21.4328 75.6623C21.7861 75.4778 22.0462 75.1678 22.1648 74.7892C22.4093 74.0074 21.9683 73.1737 21.1812 72.9305C21.035 72.8853 20.8854 72.8627 20.736 72.8627Z" fill="#81C2FF"/>
<path d="M32.352 88.0389C31.8866 88.0389 31.4138 87.9702 30.9469 87.826C28.4501 87.0549 27.0505 84.4101 27.827 81.9302C28.203 80.7288 29.0275 79.7451 30.1487 79.1597C31.27 78.5743 32.5536 78.4576 33.7629 78.8314C34.9725 79.2049 35.9629 80.0238 36.5522 81.1375C37.1416 82.2511 37.2588 83.5258 36.8828 84.7272C36.2519 86.7433 34.3737 88.0389 32.352 88.0389ZM32.3533 81.8435C32.1143 81.8435 31.8772 81.9012 31.6597 82.0147C31.3064 82.1992 31.0463 82.5095 30.9277 82.8881C30.6832 83.6696 31.1242 84.5037 31.911 84.7465C32.6968 84.9884 33.5369 84.5514 33.782 83.7696C33.9006 83.391 33.8635 82.9894 33.6778 82.6382C33.4921 82.2873 33.1797 82.0289 32.7985 81.9112C32.6523 81.866 32.5023 81.8435 32.3533 81.8435Z" fill="#81C2FF"/>
<path d="M41.5614 37.3849C42.0122 36.0067 43.9618 36.0067 44.4127 37.3849L45.2203 39.8537C45.422 40.4703 45.9972 40.8874 46.646 40.8874H49.2378C50.6934 40.8874 51.2959 42.752 50.1156 43.6037L48.0363 45.1042C47.507 45.4862 47.2855 46.1666 47.4884 46.787L48.2868 49.2275C48.7382 50.6076 47.1609 51.76 45.9833 50.9102L43.8648 49.3814C43.3407 49.0032 42.6333 49.0032 42.1093 49.3814L39.9907 50.9102C38.8132 51.76 37.2358 50.6076 37.6873 49.2275L38.4857 46.787C38.6886 46.1666 38.4671 45.4862 37.9378 45.1042L35.8584 43.6037C34.6781 42.752 35.2807 40.8874 36.7362 40.8874H39.3281C39.9768 40.8874 40.552 40.4703 40.7537 39.8538L41.5614 37.3849Z" fill="white"/>
<defs>
<linearGradient id="paint0_linear_1_1527" x1="76.0569" y1="38.4486" x2="93.3655" y2="121.708" gradientUnits="userSpaceOnUse">
<stop stop-color="#77C2FE" stop-opacity="0"/>
<stop offset="1" stop-color="#77C2FE"/>
</linearGradient>
</defs>
</svg>
