<svg width="191" height="180" viewBox="0 0 191 180" fill="none" xmlns="http://www.w3.org/2000/svg">
<path d="M174.546 9.6158C152.156 -3.73902 123.183 -2.99758 101.193 10.6849C88.8382 18.3722 79.288 29.4594 68.4581 39.004C58.9683 47.3673 47.933 53.333 38.1321 61.2242C2.58845 89.8425 5.97986 167.031 56.0293 177.284C77.7245 181.728 107.376 183.154 120.128 161.941C132.286 141.715 136.364 121.025 160.119 110.282C168.398 106.537 182.235 106.726 187.843 98.5218C194.92 88.1683 186.139 77.4129 181.455 68.3904C175.418 56.7628 174.152 45.2991 178.4 32.8263C182.016 22.2053 184.563 17.4342 174.546 9.6158Z" fill="url(#paint0_linear_1_1424)"/>
<path opacity="0.1" d="M144.356 108.027C129.834 108.027 117.422 117.067 112.426 129.831C112.391 129.819 112.36 129.8 112.324 129.79L93.1344 124.167C94.2842 120.736 94.9083 117.064 94.9083 113.245C94.9083 104.381 91.5509 96.3016 86.0401 90.2122L106.98 75.9567C107.005 75.9395 107.024 75.9177 107.048 75.8994C113.329 83.7895 123.009 88.8474 133.871 88.8474C152.804 88.8474 168.153 73.4827 168.153 54.5293C168.153 35.5758 152.804 20.2111 133.871 20.2111C114.938 20.2111 99.5896 35.5758 99.5896 54.5293C99.5896 61.3507 101.578 67.7069 105.006 73.0496H105.005L83.8238 87.4697C83.7167 87.5424 83.6218 87.6265 83.5365 87.7172C77.4648 82.2528 69.4342 78.9263 60.6268 78.9263C41.6936 78.9263 26.3454 94.291 26.3454 113.245C26.3454 132.198 41.6936 147.563 60.6268 147.563C74.5054 147.563 86.4573 139.306 91.8498 127.433C91.9127 127.459 91.9727 127.49 92.0394 127.51L111.319 133.158C110.509 136.083 110.074 139.163 110.074 142.345C110.074 161.299 125.423 176.664 144.356 176.664C163.289 176.664 178.637 161.299 178.637 142.345C178.637 123.392 163.289 108.027 144.356 108.027Z" fill="#3A85F4"/>
<path d="M133.872 80.4099C152.805 80.4099 168.154 65.0452 168.154 46.0918C168.154 27.1384 152.805 11.7736 133.872 11.7736C114.939 11.7736 99.5908 27.1384 99.5908 46.0918C99.5908 65.0452 114.939 80.4099 133.872 80.4099Z" fill="#D4EBFF"/>
<path d="M60.6268 139.125C79.5599 139.125 94.9083 123.76 94.9083 104.807C94.9083 85.8536 79.5599 70.4888 60.6268 70.4888C41.6937 70.4888 26.3454 85.8536 26.3454 104.807C26.3454 123.76 41.6937 139.125 60.6268 139.125Z" fill="#D4EBFF"/>
<path d="M144.357 168.226C163.29 168.226 178.639 152.861 178.639 133.908C178.639 114.955 163.29 99.5898 144.357 99.5898C125.424 99.5898 110.076 114.955 110.076 133.908C110.076 152.861 125.424 168.226 144.357 168.226Z" fill="#D4EBFF"/>
<path d="M67.0521 49.7825C66.0822 49.7825 65.2962 48.9953 65.2962 48.0247C65.2962 46.8613 64.3508 45.9153 63.1887 45.9153C62.2188 45.9153 61.4328 45.1281 61.4328 44.1575C61.4328 43.1868 62.2188 42.3997 63.1887 42.3997C64.3508 42.3997 65.2962 41.4536 65.2962 40.2903C65.2962 39.3196 66.0822 38.5325 67.0521 38.5325C68.0221 38.5325 68.8081 39.3196 68.8081 40.2903C68.8081 41.4536 69.7531 42.3997 70.9148 42.3997C71.8848 42.3997 72.6708 43.1868 72.6708 44.1575C72.6708 45.1281 71.8848 45.9153 70.9148 45.9153C69.7531 45.9153 68.8081 46.8613 68.8081 48.0247C68.8081 48.9953 68.0221 49.7825 67.0521 49.7825Z" fill="#81C2FF"/>
<path d="M171.941 86.1109C170.971 86.1109 170.186 85.3237 170.186 84.353C170.186 83.1897 169.24 82.2437 168.078 82.2437C167.108 82.2437 166.322 81.4565 166.322 80.4858C166.322 79.5152 167.108 78.728 168.078 78.728C169.24 78.728 170.186 77.782 170.186 76.6187C170.186 75.648 170.971 74.8608 171.941 74.8608C172.911 74.8608 173.697 75.648 173.697 76.6187C173.697 77.782 174.642 78.728 175.804 78.728C176.774 78.728 177.56 79.5152 177.56 80.4858C177.56 81.4565 176.774 82.2437 175.804 82.2437C174.642 82.2437 173.697 83.1897 173.697 84.353C173.697 85.3237 172.911 86.1109 171.941 86.1109Z" fill="#D4EBFF"/>
<path d="M78.6136 158.431C77.6437 158.431 76.8577 157.644 76.8577 156.673C76.8577 155.51 75.9127 154.564 74.7506 154.564C73.7806 154.564 72.9946 153.776 72.9946 152.806C72.9946 151.835 73.7806 151.048 74.7506 151.048C75.9127 151.048 76.8577 150.102 76.8577 148.939C76.8577 147.968 77.6437 147.181 78.6136 147.181C79.5836 147.181 80.3696 147.968 80.3696 148.939C80.3696 150.102 81.3146 151.048 82.4767 151.048C83.4467 151.048 84.2326 151.835 84.2326 152.806C84.2326 153.776 83.4467 154.564 82.4767 154.564C81.3146 154.564 80.3696 155.51 80.3696 156.673C80.3696 157.644 79.5836 158.431 78.6136 158.431Z" fill="#81C2FF"/>
<path d="M80.0417 59.9778C79.5925 59.9778 79.1427 59.8062 78.8002 59.4631L74.9372 55.5959C74.2513 54.9093 74.2513 53.7963 74.9372 53.11L78.8002 49.2428C79.4854 48.5566 80.598 48.5566 81.2831 49.2428L85.1462 53.11C85.8321 53.7966 85.8321 54.9097 85.1462 55.5959L81.2831 59.4631C80.9407 59.8059 80.4912 59.9778 80.0417 59.9778ZM78.6619 54.3528L80.0417 55.7341L81.4215 54.3528L80.0417 52.9715L78.6619 54.3528Z" fill="#D4EBFF"/>
<path d="M98.7697 163.097C98.3205 163.097 97.8707 162.925 97.5282 162.582L93.6652 158.715C92.9793 158.028 92.9793 156.915 93.6652 156.229L97.5282 152.362C98.2134 151.676 99.326 151.676 100.011 152.362L103.874 156.229C104.56 156.916 104.56 158.029 103.874 158.715L100.011 162.582C99.6687 162.925 99.2192 163.097 98.7697 163.097ZM97.3902 157.472L98.77 158.853L100.15 157.472L98.77 156.091L97.3902 157.472Z" fill="#9ED0FF"/>
<path d="M6.1189 127.25C5.66973 127.25 5.21986 127.078 4.87746 126.735L1.0144 122.868C0.328533 122.181 0.328533 121.068 1.0144 120.382L4.87746 116.515C5.56262 115.828 6.67518 115.828 7.36035 116.515L11.2234 120.382C11.9093 121.068 11.9093 122.182 11.2234 122.868L7.36035 126.735C7.01794 127.078 6.56842 127.25 6.1189 127.25ZM4.73944 121.625L6.11926 123.006L7.49907 121.625L6.11926 120.243L4.73944 121.625Z" fill="#81C2FF"/>
<path d="M85 80L105.5 66" stroke="#5A5A5A" stroke-width="3"/>
<path fill-rule="evenodd" clip-rule="evenodd" d="M60.6272 140.883C75.2703 140.883 87.9007 132.094 93.5334 119.51C93.779 119.009 94.3791 117.651 94.8152 116.222C96.0142 112.633 96.6653 108.795 96.6653 104.808C96.6653 95.5906 93.1931 87.1714 87.4912 80.7877C87.2064 80.464 85.7007 78.9564 84.9834 78.2431C78.5648 72.3403 70.0095 68.7312 60.6268 68.7312C40.7556 68.7312 24.5894 84.9147 24.5894 104.807C24.5898 124.7 40.756 140.883 60.6272 140.883ZM103.565 65.5928C104.156 66.4312 105.391 68.1768 105.611 68.4517C112.218 76.8013 122.43 82.1676 133.872 82.1676C142.45 82.1676 150.759 79.0995 157.271 73.5283C163.709 68.0196 168.021 60.4044 169.411 52.0858C169.571 51.1281 168.925 50.2221 167.969 50.0618C167.015 49.9033 166.108 50.548 165.947 51.5057C164.693 59.0112 160.801 65.8828 154.989 70.8561C149.113 75.8834 141.613 78.6523 133.872 78.6523C115.937 78.6523 101.346 64.0459 101.346 46.092C101.346 28.138 115.937 13.5316 133.872 13.5316C149.627 13.5316 163.088 24.7785 165.879 40.274C166.051 41.2295 166.963 41.8634 167.919 41.6918C168.874 41.5195 169.508 40.6055 169.336 39.6499C166.242 22.4789 151.328 10.016 133.871 10.016C114 10.016 97.8337 26.1995 97.8337 46.092C97.8337 53.2709 99.9401 59.9664 103.565 65.5928ZM108.319 133.908C108.319 130.6 108.765 127.35 109.633 124.227C109.739 123.608 110.417 121.744 110.742 120.889C111.78 118.207 113.139 115.642 114.815 113.245C115.371 112.45 116.466 112.257 117.261 112.813C118.055 113.37 118.248 114.466 117.692 115.261C113.858 120.745 111.831 127.193 111.831 133.908C111.831 151.862 126.422 166.469 144.357 166.469C162.291 166.469 176.882 151.862 176.882 133.908C176.882 115.954 162.291 101.348 144.357 101.348C137.594 101.348 131.109 103.406 125.606 107.301C124.814 107.861 123.718 107.673 123.158 106.88C122.598 106.087 122.787 104.99 123.578 104.43C129.678 100.114 136.863 97.8322 144.356 97.8322C164.228 97.8322 180.394 114.016 180.394 133.908C180.394 153.801 164.228 169.984 144.356 169.984C124.485 169.984 108.319 153.801 108.319 133.908ZM60.6272 72.2468C78.5616 72.2468 93.1527 86.8532 93.1527 104.807C93.1527 122.761 78.5616 137.368 60.6272 137.368C42.6928 137.368 28.1017 122.761 28.1017 104.807C28.1017 86.8536 42.6928 72.2468 60.6272 72.2468Z" fill="#3A85F4"/>
<ellipse cx="133.857" cy="45.5" rx="26.4717" ry="26.5" fill="white"/>
<ellipse cx="59.9363" cy="104.5" rx="26.4717" ry="26.5" fill="white"/>
<ellipse cx="143.846" cy="133.5" rx="26.4717" ry="26.5" fill="white"/>
<ellipse cx="144.415" cy="133.209" rx="9.19945" ry="9.2093" fill="#3A85F4"/>
<path fill-rule="evenodd" clip-rule="evenodd" d="M129.445 155.739C129.841 151.438 131.766 146.178 137.406 144.093C139.505 145.661 145.22 147.855 151.287 144.093C153.904 144.961 158.454 148.248 159.324 155.001C154.976 158.143 149.636 159.996 143.865 160H143.83C138.525 159.997 133.586 158.431 129.445 155.739Z" fill="#3A85F4"/>
<ellipse cx="60.4232" cy="104.209" rx="9.19945" ry="9.2093" fill="#3A85F4"/>
<path fill-rule="evenodd" clip-rule="evenodd" d="M45.4533 126.739C45.8495 122.438 47.7737 117.178 53.4141 115.093C55.513 116.661 61.2277 118.855 67.2951 115.093C69.9124 115.961 74.4619 119.248 75.3319 126.001C70.9837 129.143 65.6442 130.996 59.8727 131H59.8375C54.5331 130.997 49.5937 129.431 45.4533 126.739Z" fill="#3A85F4"/>
<ellipse cx="134.343" cy="45.2093" rx="9.19945" ry="9.2093" fill="#3A85F4"/>
<path fill-rule="evenodd" clip-rule="evenodd" d="M119.373 67.7384C119.769 63.4378 121.693 58.1776 127.334 56.093C129.432 57.6607 135.147 59.8554 141.215 56.093C143.832 56.9615 148.381 60.2482 149.251 67.0017C144.903 70.1436 139.564 71.9962 133.793 72H133.757C128.453 71.9965 123.513 70.4311 119.373 67.7384Z" fill="#3A85F4"/>
<path d="M94 118L110 123" stroke="#5A5A5A" stroke-width="3"/>
<defs>
<linearGradient id="paint0_linear_1_1424" x1="14.4846" y1="89.9999" x2="190.5" y2="89.9999" gradientUnits="userSpaceOnUse">
<stop stop-color="#6EBDFE" stop-opacity="0"/>
<stop offset="1" stop-color="#6EBDFE"/>
</linearGradient>
</defs>
</svg>
