<svg width="301" height="301" viewBox="0 0 301 301" fill="none" xmlns="http://www.w3.org/2000/svg">
<g filter="url(#filter0_d_1_1422)">
<rect x="17.5" y="14" width="266" height="267" rx="14" fill="white"/>
</g>
<path d="M229.546 62.6158C207.156 49.261 178.183 50.0024 156.193 63.6849C143.838 71.3722 134.288 82.4594 123.458 92.004C113.968 100.367 102.933 106.333 93.1321 114.224C57.5885 142.842 60.9799 220.031 111.029 230.284C132.725 234.728 162.376 236.154 175.128 214.941C187.286 194.715 191.364 174.025 215.119 163.282C223.398 159.537 237.235 159.726 242.843 151.522C249.92 141.168 241.139 130.413 236.455 121.39C230.418 109.763 229.152 98.2991 233.4 85.8263C237.016 75.2053 239.563 70.4342 229.546 62.6158Z" fill="url(#paint0_linear_1_1422)"/>
<path opacity="0.1" d="M199.356 161.027C184.834 161.027 172.422 170.067 167.426 182.831C167.391 182.819 167.36 182.8 167.324 182.79L148.134 177.167C149.284 173.736 149.908 170.064 149.908 166.245C149.908 157.381 146.551 149.302 141.04 143.212L161.98 128.957C162.005 128.939 162.024 128.918 162.048 128.899C168.329 136.79 178.009 141.847 188.871 141.847C207.804 141.847 223.153 126.483 223.153 107.529C223.153 88.5758 207.804 73.2111 188.871 73.2111C169.938 73.2111 154.59 88.5758 154.59 107.529C154.59 114.351 156.578 120.707 160.006 126.05H160.005L138.824 140.47C138.717 140.542 138.622 140.626 138.536 140.717C132.465 135.253 124.434 131.926 115.627 131.926C96.6936 131.926 81.3454 147.291 81.3454 166.245C81.3454 185.198 96.6936 200.563 115.627 200.563C129.505 200.563 141.457 192.306 146.85 180.433C146.913 180.459 146.973 180.49 147.039 180.51L166.319 186.158C165.509 189.083 165.074 192.163 165.074 195.345C165.074 214.299 180.423 229.664 199.356 229.664C218.289 229.664 233.637 214.299 233.637 195.345C233.637 176.392 218.289 161.027 199.356 161.027Z" fill="#3A85F4"/>
<path d="M188.872 133.41C207.805 133.41 223.154 118.045 223.154 99.0918C223.154 80.1384 207.805 64.7736 188.872 64.7736C169.939 64.7736 154.591 80.1384 154.591 99.0918C154.591 118.045 169.939 133.41 188.872 133.41Z" fill="#D4EBFF"/>
<path d="M115.627 192.125C134.56 192.125 149.908 176.76 149.908 157.807C149.908 138.854 134.56 123.489 115.627 123.489C96.6937 123.489 81.3454 138.854 81.3454 157.807C81.3454 176.76 96.6937 192.125 115.627 192.125Z" fill="#D4EBFF"/>
<path d="M199.357 221.226C218.29 221.226 233.639 205.861 233.639 186.908C233.639 167.955 218.29 152.59 199.357 152.59C180.424 152.59 165.076 167.955 165.076 186.908C165.076 205.861 180.424 221.226 199.357 221.226Z" fill="#D4EBFF"/>
<path d="M122.052 102.782C121.082 102.782 120.296 101.995 120.296 101.025C120.296 99.8613 119.351 98.9153 118.189 98.9153C117.219 98.9153 116.433 98.1281 116.433 97.1575C116.433 96.1868 117.219 95.3997 118.189 95.3997C119.351 95.3997 120.296 94.4536 120.296 93.2903C120.296 92.3196 121.082 91.5325 122.052 91.5325C123.022 91.5325 123.808 92.3196 123.808 93.2903C123.808 94.4536 124.753 95.3997 125.915 95.3997C126.885 95.3997 127.671 96.1868 127.671 97.1575C127.671 98.1281 126.885 98.9153 125.915 98.9153C124.753 98.9153 123.808 99.8613 123.808 101.025C123.808 101.995 123.022 102.782 122.052 102.782Z" fill="#81C2FF"/>
<path d="M226.941 139.111C225.971 139.111 225.186 138.324 225.186 137.353C225.186 136.19 224.24 135.244 223.078 135.244C222.108 135.244 221.322 134.457 221.322 133.486C221.322 132.515 222.108 131.728 223.078 131.728C224.24 131.728 225.186 130.782 225.186 129.619C225.186 128.648 225.971 127.861 226.941 127.861C227.911 127.861 228.697 128.648 228.697 129.619C228.697 130.782 229.642 131.728 230.804 131.728C231.774 131.728 232.56 132.515 232.56 133.486C232.56 134.457 231.774 135.244 230.804 135.244C229.642 135.244 228.697 136.19 228.697 137.353C228.697 138.324 227.911 139.111 226.941 139.111Z" fill="#D4EBFF"/>
<path d="M133.614 211.431C132.644 211.431 131.858 210.644 131.858 209.673C131.858 208.51 130.913 207.564 129.751 207.564C128.781 207.564 127.995 206.776 127.995 205.806C127.995 204.835 128.781 204.048 129.751 204.048C130.913 204.048 131.858 203.102 131.858 201.939C131.858 200.968 132.644 200.181 133.614 200.181C134.584 200.181 135.37 200.968 135.37 201.939C135.37 203.102 136.315 204.048 137.477 204.048C138.447 204.048 139.233 204.835 139.233 205.806C139.233 206.776 138.447 207.564 137.477 207.564C136.315 207.564 135.37 208.51 135.37 209.673C135.37 210.644 134.584 211.431 133.614 211.431Z" fill="#81C2FF"/>
<path d="M135.042 112.978C134.593 112.978 134.143 112.806 133.8 112.463L129.937 108.596C129.251 107.909 129.251 106.796 129.937 106.11L133.8 102.243C134.485 101.557 135.598 101.557 136.283 102.243L140.146 106.11C140.832 106.797 140.832 107.91 140.146 108.596L136.283 112.463C135.941 112.806 135.491 112.978 135.042 112.978ZM133.662 107.353L135.042 108.734L136.422 107.353L135.042 105.972L133.662 107.353Z" fill="#D4EBFF"/>
<path d="M153.77 216.097C153.321 216.097 152.871 215.925 152.528 215.582L148.665 211.715C147.979 211.028 147.979 209.915 148.665 209.229L152.528 205.362C153.213 204.676 154.326 204.676 155.011 205.362L158.874 209.229C159.56 209.916 159.56 211.029 158.874 211.715L155.011 215.582C154.669 215.925 154.219 216.097 153.77 216.097ZM152.39 210.472L153.77 211.853L155.15 210.472L153.77 209.091L152.39 210.472Z" fill="#9ED0FF"/>
<path d="M61.1189 180.25C60.6697 180.25 60.2199 180.078 59.8775 179.735L56.0144 175.868C55.3285 175.181 55.3285 174.068 56.0144 173.382L59.8775 169.515C60.5626 168.828 61.6752 168.828 62.3603 169.515L66.2234 173.382C66.9093 174.068 66.9093 175.182 66.2234 175.868L62.3603 179.735C62.0179 180.078 61.5684 180.25 61.1189 180.25ZM59.7394 174.625L61.1193 176.006L62.4991 174.625L61.1193 173.243L59.7394 174.625Z" fill="#81C2FF"/>
<path d="M140 133L160.5 119" stroke="#5A5A5A" stroke-width="3"/>
<path fill-rule="evenodd" clip-rule="evenodd" d="M115.627 193.883C130.27 193.883 142.901 185.094 148.533 172.51C148.779 172.009 149.379 170.651 149.815 169.222C151.014 165.633 151.665 161.795 151.665 157.808C151.665 148.591 148.193 140.171 142.491 133.788C142.206 133.464 140.701 131.956 139.983 131.243C133.565 125.34 125.009 121.731 115.627 121.731C95.7556 121.731 79.5894 137.915 79.5894 157.807C79.5898 177.7 95.756 193.883 115.627 193.883ZM158.565 118.593C159.156 119.431 160.391 121.177 160.611 121.452C167.218 129.801 177.43 135.168 188.872 135.168C197.45 135.168 205.759 132.1 212.271 126.528C218.709 121.02 223.021 113.404 224.411 105.086C224.571 104.128 223.925 103.222 222.969 103.062C222.015 102.903 221.108 103.548 220.947 104.506C219.693 112.011 215.801 118.883 209.989 123.856C204.113 128.883 196.613 131.652 188.872 131.652C170.937 131.652 156.346 117.046 156.346 99.092C156.346 81.138 170.937 66.5316 188.872 66.5316C204.627 66.5316 218.088 77.7785 220.879 93.274C221.051 94.2295 221.963 94.8634 222.919 94.6918C223.874 94.5195 224.508 93.6055 224.336 92.6499C221.242 75.4789 206.328 63.016 188.871 63.016C169 63.016 152.834 79.1995 152.834 99.092C152.834 106.271 154.94 112.966 158.565 118.593ZM163.319 186.908C163.319 183.6 163.765 180.35 164.633 177.227C164.739 176.608 165.417 174.744 165.742 173.889C166.78 171.207 168.139 168.642 169.815 166.245C170.371 165.45 171.466 165.257 172.261 165.813C173.055 166.37 173.248 167.466 172.692 168.261C168.858 173.745 166.831 180.193 166.831 186.908C166.831 204.862 181.422 219.469 199.357 219.469C217.291 219.469 231.882 204.862 231.882 186.908C231.882 168.954 217.291 154.348 199.357 154.348C192.594 154.348 186.109 156.406 180.606 160.301C179.814 160.861 178.718 160.673 178.158 159.88C177.598 159.087 177.787 157.99 178.578 157.43C184.678 153.114 191.863 150.832 199.356 150.832C219.228 150.832 235.394 167.016 235.394 186.908C235.394 206.801 219.228 222.984 199.356 222.984C179.485 222.984 163.319 206.801 163.319 186.908ZM115.627 125.247C133.562 125.247 148.153 139.853 148.153 157.807C148.153 175.761 133.562 190.368 115.627 190.368C97.6928 190.368 83.1017 175.761 83.1017 157.807C83.1017 139.854 97.6928 125.247 115.627 125.247Z" fill="#3A85F4"/>
<ellipse cx="188.857" cy="98.5" rx="26.4717" ry="26.5" fill="white"/>
<ellipse cx="114.936" cy="157.5" rx="26.4717" ry="26.5" fill="white"/>
<ellipse cx="198.846" cy="186.5" rx="26.4717" ry="26.5" fill="white"/>
<ellipse cx="199.415" cy="186.209" rx="9.19945" ry="9.2093" fill="#3A85F4"/>
<path fill-rule="evenodd" clip-rule="evenodd" d="M184.445 208.739C184.841 204.438 186.766 199.178 192.406 197.093C194.505 198.661 200.22 200.855 206.287 197.093C208.904 197.961 213.454 201.248 214.324 208.001C209.976 211.143 204.636 212.996 198.865 213H198.83C193.525 212.997 188.586 211.431 184.445 208.739Z" fill="#3A85F4"/>
<ellipse cx="115.423" cy="157.209" rx="9.19945" ry="9.2093" fill="#3A85F4"/>
<path fill-rule="evenodd" clip-rule="evenodd" d="M100.453 179.739C100.849 175.438 102.774 170.178 108.414 168.093C110.513 169.661 116.228 171.855 122.295 168.093C124.912 168.961 129.462 172.248 130.332 179.001C125.984 182.143 120.644 183.996 114.873 184H114.838C109.533 183.997 104.594 182.431 100.453 179.739Z" fill="#3A85F4"/>
<ellipse cx="189.343" cy="98.2093" rx="9.19945" ry="9.2093" fill="#3A85F4"/>
<path fill-rule="evenodd" clip-rule="evenodd" d="M174.373 120.738C174.769 116.438 176.693 111.178 182.334 109.093C184.432 110.661 190.147 112.855 196.215 109.093C198.832 109.961 203.381 113.248 204.251 120.002C199.903 123.144 194.564 124.996 188.793 125H188.757C183.453 124.997 178.513 123.431 174.373 120.738Z" fill="#3A85F4"/>
<path d="M149 171L165 176" stroke="#5A5A5A" stroke-width="3"/>
<defs>
<filter id="filter0_d_1_1422" x="0.5" y="0" width="300" height="301" filterUnits="userSpaceOnUse" color-interpolation-filters="sRGB">
<feFlood flood-opacity="0" result="BackgroundImageFix"/>
<feColorMatrix in="SourceAlpha" type="matrix" values="0 0 0 0 0 0 0 0 0 0 0 0 0 0 0 0 0 0 127 0" result="hardAlpha"/>
<feOffset dy="3"/>
<feGaussianBlur stdDeviation="8.5"/>
<feColorMatrix type="matrix" values="0 0 0 0 0.168627 0 0 0 0 0.482353 0 0 0 0 0.827451 0 0 0 0.06 0"/>
<feBlend mode="normal" in2="BackgroundImageFix" result="effect1_dropShadow_1_1422"/>
<feBlend mode="normal" in="SourceGraphic" in2="effect1_dropShadow_1_1422" result="shape"/>
</filter>
<linearGradient id="paint0_linear_1_1422" x1="69.4846" y1="143" x2="245.5" y2="143" gradientUnits="userSpaceOnUse">
<stop stop-color="#6EBDFE" stop-opacity="0"/>
<stop offset="1" stop-color="#6EBDFE"/>
</linearGradient>
</defs>
</svg>
